<?xml version="1.0" encoding="UTF-8" standalone="no"?>
<!-- Created with Inkscape (http://www.inkscape.org/) -->

<svg
   width="554.11597"
   height="307.89227"
   viewBox="0 0 554.11597 307.89227"
   version="1.1"
   id="svg5"
   xml:space="preserve"
   inkscape:version="1.2 (dc2aedaf03, 2022-05-15)"
   sodipodi:docname="LogoCuartaCreciente.svg"
   inkscape:export-filename="LogoCuartaCrecienteNegra1.webp"
   inkscape:export-xdpi="93.539207"
   inkscape:export-ydpi="93.539207"
   xmlns:inkscape="http://www.inkscape.org/namespaces/inkscape"
   xmlns:sodipodi="http://sodipodi.sourceforge.net/DTD/sodipodi-0.dtd"
   xmlns="http://www.w3.org/2000/svg"
   xmlns:svg="http://www.w3.org/2000/svg"><sodipodi:namedview
     id="namedview7"
     pagecolor="#505050"
     bordercolor="#eeeeee"
     borderopacity="1"
     inkscape:showpageshadow="0"
     inkscape:pageopacity="0"
     inkscape:pagecheckerboard="0"
     inkscape:deskcolor="#505050"
     inkscape:document-units="px"
     showgrid="false"
     inkscape:zoom="0.90509668"
     inkscape:cx="630.87183"
     inkscape:cy="329.79902"
     inkscape:window-width="1920"
     inkscape:window-height="1080"
     inkscape:window-x="-8"
     inkscape:window-y="-8"
     inkscape:window-maximized="0"
     inkscape:current-layer="layer4"
     showguides="true"><inkscape:grid
       type="xygrid"
       id="grid291" /><sodipodi:guide
       position="-719.5149,-21.547493"
       orientation="0,-1"
       id="guide293"
       inkscape:locked="false" /><sodipodi:guide
       position="296.95109,206.05251"
       orientation="1,0"
       id="guide295"
       inkscape:locked="false" /></sodipodi:namedview><defs
     id="defs2"><rect
       x="446.875"
       y="85.9375"
       width="117.1875"
       height="153.125"
       id="rect4589" /><linearGradient
       id="linearGradient3389"
       inkscape:swatch="solid"><stop
         style="stop-color:#ff6600;stop-opacity:1;"
         offset="0"
         id="stop3387" /></linearGradient></defs><g
     inkscape:groupmode="layer"
     id="layer6"
     inkscape:label="Luna"
     transform="translate(-373.6955,-30.742754)"><g
       inkscape:groupmode="layer"
       id="layer10"
       inkscape:label="MediaLuna 3"><text
         xml:space="preserve"
         style="font-size:32px;line-height:1.25;font-family:'French Script MT';-inkscape-font-specification:'French Script MT, Normal';font-variant-ligatures:none"
         x="396.64273"
         y="283.94757"
         id="text732"><tspan
           sodipodi:role="line"
           id="tspan730"
           x="396.64273"
           y="283.94757">Media lunas y delicateses</tspan></text></g></g><g
     inkscape:groupmode="layer"
     id="layer2"
     inkscape:label="Capa principal"
     style="display:inline"
     transform="translate(-382.28925,52.069746)"><g
       id="g4706"
       transform="translate(95.017474,-174.56699)"><path
         style="display:inline;fill:none;stroke:#000000;stroke-width:1px;stroke-linecap:butt;stroke-linejoin:miter;stroke-opacity:1"
         d="m 824.60938,334.96094 c 0,0 12.30469,-30.07813 11.52344,-55.27344 -0.78125,-25.19531 -1.46485,-33.20312 -8.88672,-54.78516 -7.42188,-21.58203 -19.82422,-38.18359 -25.29297,-45.21484 -5.46875,-7.03125 -19.82422,-21.77734 -31.64063,-28.90625 -11.8164,-7.12891 -24.12109,-18.55469 -64.16015,-25.68359 -40.03907,-7.12891 -71.28907,6.15234 -73.14453,6.44531 -1.85547,0.29297 -21.77735,7.51953 -35.54688,17.67578 -13.76953,10.15625 -25.68359,18.26172 -41.11328,40.52734 -15.42969,22.26563 -21.09375,44.92188 -21.09375,44.92188 0,0 6.19378,-18.04746 17.8638,-33.37732 11.67002,-15.32985 27.34515,-29.69296 48.82075,-39.77475 21.47561,-10.0818 63.49123,-20.8909 108.12014,0.10519 44.6289,20.9961 60.85352,60.45463 60.85352,60.45463 0,0 30.12692,45.55561 1.81503,108.80852 -28.3119,63.25291 -96.69439,72.66381 -96.69439,72.66381 0,0 -21.40656,3.59078 -39.36044,0.13811 -17.95388,-3.45267 -31.28119,-6.76723 -54.41408,-21.75182 -23.13288,-14.98459 -39.98191,-43.36553 -44.67754,-56.00231 -4.69564,-12.63677 5.58337,17.03672 12.22399,27.38828 6.64063,10.35157 11.18511,16.52968 11.18511,16.52968 0,0 13.60352,16.98714 23.20194,24.16869 9.59842,7.18156 22.71857,19.74927 55.79514,29.90012 33.07658,10.15085 65.53168,4.28131 65.53168,4.28131 0,0 23.68531,-2.69308 45.64429,-14.15594 21.95898,-11.46287 33.55995,-22.71857 33.55995,-22.71857 0,0 16.71093,-14.29405 28.58811,-34.04332 11.87718,-19.74928 10.71975,-21.02642 11.29847,-22.32134 z"
         id="path3641"
         sodipodi:nodetypes="csssssssscssscscsssscsscscsc" /><g
         id="g3966"
         transform="matrix(0.93434808,0,0,1.0013185,-34.264903,-87.983578)"
         style="display:inline"><path
           style="fill:none;stroke:#000000;stroke-width:5.37;stroke-linecap:round;stroke-linejoin:round;stroke-dasharray:none;stroke-opacity:1"
           d="m 929.79891,392.75632 -6.19812,16.57942 c 0,0 -3.69726,7.14858 -8.53058,9.79892 -4.83328,2.65034 -7.16472,2.01238 -9.85408,1.63353 -2.6889,-0.37843 -14.11463,-7.74471 -17.56691,-10.44739 -3.45199,-2.70229 -9.01766,-7.86316 -10.70042,-10.94218 -1.68306,-3.0787 -2.40283,-6.20866 -2.35998,-9.22635 0.0445,-3.01709 1.68641,-5.00434 1.68641,-5.00434 l 5.85744,3.50406 c 0,0 4.83304,2.64507 13.04433,4.29076 1.89178,0.37914 15.80692,3.2814 21.07686,3.67673 6.00437,0.45043 10.44718,-0.43779 13.54505,-3.86316 z"
           id="path3956"
           sodipodi:nodetypes="ccscsccccssc" /><path
           style="fill:none;stroke:#000000;stroke-width:5.37;stroke-linecap:round;stroke-linejoin:round;stroke-dasharray:none;stroke-opacity:1"
           d="m 906.07889,420.92193 c 0,0 -5.4298,7.71083 -21.87764,11.5592 -15.61197,3.65318 -22.012,-5.55282 -16.51945,-19.57376 4.01698,-10.25395 8.29566,-15.66577 8.29566,-15.66577 l 1.9119,3.68929 4.08364,4.35245 c 0,0 5.40651,5.6763 17.62383,12.88877 5.24447,3.09606 6.48206,2.74982 6.48206,2.74982 z"
           id="path3958"
           sodipodi:nodetypes="csscccsc" /><path
           style="fill:none;stroke:#000000;stroke-width:5.26989;stroke-linecap:round;stroke-linejoin:round;stroke-dasharray:none;stroke-opacity:1"
           d="m 934.14102,381.86963 c 0,0 0.89479,-13.66393 0.0225,-29.96866 -0.87225,-16.30524 -15.46498,-14.50225 -18.15681,-14.23835 -2.69188,0.26295 -25.92921,3.51763 -34.27531,9.07732 -8.34675,5.5606 -7.3878,9.78227 -7.3878,9.78227 l -0.0364,21.63205 c 0,0 -0.0286,3.78302 4.59487,7.22713 4.62396,3.44438 10.33868,5.5645 10.33868,5.5645 0,0 19.43503,5.87868 31.24543,5.93175 11.81062,0.0526 13.83423,-13.06219 13.65453,-15.00803 z"
           id="path3960" /><path
           style="fill:none;stroke:#000000;stroke-width:5.37;stroke-linecap:round;stroke-linejoin:round;stroke-dasharray:none;stroke-opacity:1"
           d="m 930.20658,341.5899 -4.29217,-12.78557 c 0,0 -4.20889,-9.69016 -9.0013,-12.41422 -4.79213,-2.72391 -8.72147,-3.98637 -11.41592,-3.64874 -2.69461,0.33769 -14.23144,7.5282 -17.72467,10.17769 -3.493,2.64897 -9.13694,7.72439 -10.86691,10.77677 -1.72982,3.05255 -2.15185,4.85935 -2.15515,7.87715 -0.004,3.01744 1.48551,7.63076 1.48551,7.63076 l 4.2264,-3.02262 c 0,0 7.39307,-3.22613 11.10175,-3.99565 9.47001,-2.0391 31.09166,-9.00999 38.64246,-0.59557 z"
           id="path3962"
           sodipodi:nodetypes="ccssccccccc" /><path
           style="fill:none;stroke:#000000;stroke-width:5.37;stroke-linecap:round;stroke-linejoin:round;stroke-dasharray:none;stroke-opacity:1"
           d="m 905.52061,312.76171 c 0,0 -4.91823,-7.78756 -21.35971,-11.66533 -15.60523,-3.68036 -21.95269,5.37604 -16.48473,19.40671 3.9989,10.26103 8.07855,15.47368 8.07855,15.47368 l 1.65111,-3.01511 c 0,0 3.87916,-6.27155 14.39439,-12.75771 3.35712,-2.07079 6.66513,-4.36156 11.73925,-6.79405 1.53912,-0.73784 1.98114,-0.64819 1.98114,-0.64819 z"
           id="path3964"
           sodipodi:nodetypes="cssccssc" /></g><tspan
         sodipodi:role="line"
         id="tspan4591"
         style="font-size:24px;line-height:1.25;font-family:'Matura MT Script Capitals';-inkscape-font-specification:'Matura MT Script Capitals, Normal';font-variant-ligatures:none;white-space:pre;shape-inside:url(#rect4589);display:inline"
         transform="translate(8.59375,-82.8125)" /><text
         xml:space="preserve"
         style="font-size:119.28px;line-height:1.25;font-family:'Matura MT Script Capitals';-inkscape-font-specification:'Matura MT Script Capitals, Normal';font-variant-ligatures:none;stroke-width:4.97"
         x="280.63217"
         y="297.83969"
         id="text4595"><tspan
           sodipodi:role="line"
           id="tspan4593"
           x="280.63217"
           y="297.83969"
           style="stroke-width:4.97">C</tspan></text><text
         xml:space="preserve"
         style="font-size:123.126px;line-height:1.25;font-family:'Matura MT Script Capitals';-inkscape-font-specification:'Matura MT Script Capitals, Normal';font-variant-ligatures:none;stroke-width:5.13022"
         x="527.6817"
         y="299.37183"
         id="text4649"><tspan
           sodipodi:role="line"
           id="tspan4647"
           x="527.6817"
           y="299.37183"
           style="stroke-width:5.13022">T</tspan></text><text
         xml:space="preserve"
         style="font-size:87.1998px;line-height:1.25;font-family:'Matura MT Script Capitals';-inkscape-font-specification:'Matura MT Script Capitals, Normal';font-variant-ligatures:none;stroke-width:3.63332"
         x="365.03928"
         y="285.49188"
         id="text4653"
         transform="scale(1.0647723,0.93916795)"><tspan
           sodipodi:role="line"
           id="tspan4651"
           x="365.03928"
           y="285.49188"
           style="stroke-width:3.63332">uar</tspan></text><text
         xml:space="preserve"
         style="font-size:62.9395px;line-height:1.25;font-family:'Matura MT Script Capitals';-inkscape-font-specification:'Matura MT Script Capitals, Normal';font-variant-ligatures:none;stroke-width:2.62248"
         x="388.953"
         y="313.66949"
         id="text4657"><tspan
           sodipodi:role="line"
           id="tspan4655"
           x="388.953"
           y="313.66949"
           style="stroke-width:2.62248">recien</tspan></text><text
         xml:space="preserve"
         style="font-size:86.0367px;line-height:1.25;font-family:'Matura MT Script Capitals';-inkscape-font-specification:'Matura MT Script Capitals, Normal';font-variant-ligatures:none;stroke-width:3.58487"
         x="570.89038"
         y="301.31427"
         id="text4661"
         transform="scale(1.0811287,0.92495926)"><tspan
           sodipodi:role="line"
           id="tspan4659"
           x="570.89038"
           y="301.31427"
           style="stroke-width:3.58487">a</tspan></text><text
         xml:space="preserve"
         style="font-size:64.9546px;line-height:1.25;font-family:'Matura MT Script Capitals';-inkscape-font-specification:'Matura MT Script Capitals, Normal';font-variant-ligatures:none;stroke-width:2.70644"
         x="583.88794"
         y="315.8324"
         id="text4665"><tspan
           sodipodi:role="line"
           id="tspan4663"
           x="583.88794"
           y="315.8324"
           style="stroke-width:2.70644">e</tspan></text><text
         xml:space="preserve"
         style="font-size:24px;line-height:1.25;font-family:'Matura MT Script Capitals';-inkscape-font-specification:'Matura MT Script Capitals, Normal';font-variant-ligatures:none"
         x="492.51996"
         y="88.992355"
         id="text4669"><tspan
           sodipodi:role="line"
           id="tspan4667"
           x="492.51996"
           y="88.992355" /></text><text
         xml:space="preserve"
         style="font-size:24px;line-height:1.25;font-family:'Matura MT Script Capitals';-inkscape-font-specification:'Matura MT Script Capitals, Normal';font-variant-ligatures:none"
         x="407.25085"
         y="342.98056"
         id="text4673"><tspan
           sodipodi:role="line"
           id="tspan4671"
           x="407.25085"
           y="342.98056">&quot;Pastelería&quot;</tspan></text></g></g></svg>
