<?xml version="1.0" encoding="UTF-8" standalone="no"?>
<!-- Created with Inkscape (http://www.inkscape.org/) -->

<svg
   width="306.6189"
   height="307.89224"
   viewBox="0 0 306.6189 307.89224"
   version="1.1"
   id="svg5"
   xml:space="preserve"
   inkscape:version="1.2 (dc2aedaf03, 2022-05-15)"
   sodipodi:docname="LogoCuartaCreciente.svg"
   inkscape:export-filename=".weLogoCuartaCrecienteBlanca.png"
   inkscape:export-xdpi="93.539207"
   inkscape:export-ydpi="93.539207"
   xmlns:inkscape="http://www.inkscape.org/namespaces/inkscape"
   xmlns:sodipodi="http://sodipodi.sourceforge.net/DTD/sodipodi-0.dtd"
   xmlns:xlink="http://www.w3.org/1999/xlink"
   xmlns="http://www.w3.org/2000/svg"
   xmlns:svg="http://www.w3.org/2000/svg"><sodipodi:namedview
     id="namedview7"
     pagecolor="#505050"
     bordercolor="#eeeeee"
     borderopacity="1"
     inkscape:showpageshadow="0"
     inkscape:pageopacity="0"
     inkscape:pagecheckerboard="0"
     inkscape:deskcolor="#505050"
     inkscape:document-units="px"
     showgrid="false"
     inkscape:zoom="0.90509668"
     inkscape:cx="630.87183"
     inkscape:cy="329.79902"
     inkscape:window-width="1920"
     inkscape:window-height="1080"
     inkscape:window-x="-8"
     inkscape:window-y="-8"
     inkscape:window-maximized="0"
     inkscape:current-layer="layer4"
     showguides="true"><inkscape:grid
       type="xygrid"
       id="grid291" /><sodipodi:guide
       position="-370.432,-30.980414"
       orientation="0,-1"
       id="guide293"
       inkscape:locked="false" /><sodipodi:guide
       position="646.034,196.61959"
       orientation="1,0"
       id="guide295"
       inkscape:locked="false" /></sodipodi:namedview><defs
     id="defs2"><linearGradient
       inkscape:collect="always"
       id="linearGradient4166"><stop
         style="stop-color:#0f0f0f;stop-opacity:0.88421053;"
         offset="0.27002287"
         id="stop4162" /><stop
         style="stop-color:#000000;stop-opacity:0;"
         offset="1"
         id="stop4164" /></linearGradient><linearGradient
       inkscape:collect="always"
       id="linearGradient4158"><stop
         style="stop-color:#000000;stop-opacity:1;"
         offset="0"
         id="stop4154" /><stop
         style="stop-color:#000000;stop-opacity:0;"
         offset="1"
         id="stop4156" /></linearGradient><linearGradient
       inkscape:collect="always"
       id="linearGradient4110"><stop
         style="stop-color:#5b5b5b;stop-opacity:1;"
         offset="0.26243094"
         id="stop4106" /><stop
         style="stop-color:#5b5b5b;stop-opacity:0;"
         offset="1"
         id="stop4108" /></linearGradient><linearGradient
       inkscape:collect="always"
       id="linearGradient4104"><stop
         style="stop-color:#444444;stop-opacity:1;"
         offset="0.23756906"
         id="stop4100" /><stop
         style="stop-color:#323232;stop-opacity:0.46190476;"
         offset="1"
         id="stop4102" /></linearGradient><linearGradient
       inkscape:collect="always"
       id="linearGradient4098"><stop
         style="stop-color:#5b5b5b;stop-opacity:1;"
         offset="0"
         id="stop4094" /><stop
         style="stop-color:#5b5b5b;stop-opacity:0;"
         offset="0.57458562"
         id="stop4096" /></linearGradient><linearGradient
       inkscape:collect="always"
       id="linearGradient4092"><stop
         style="stop-color:#5b5b5b;stop-opacity:1;"
         offset="0"
         id="stop4088" /><stop
         style="stop-color:#5b5b5b;stop-opacity:0;"
         offset="0.53591162"
         id="stop4090" /></linearGradient><linearGradient
       inkscape:collect="always"
       id="linearGradient4076"><stop
         style="stop-color:#5b5b5b;stop-opacity:1;"
         offset="0"
         id="stop4072" /><stop
         style="stop-color:#5b5b5b;stop-opacity:0;"
         offset="1"
         id="stop4074" /></linearGradient><linearGradient
       inkscape:collect="always"
       id="linearGradient3715"><stop
         style="stop-color:#ffffff;stop-opacity:1;"
         offset="0.07182322"
         id="stop3711" /><stop
         style="stop-color:#000000;stop-opacity:1"
         offset="1"
         id="stop3713" /></linearGradient><linearGradient
       id="linearGradient3389"
       inkscape:swatch="solid"><stop
         style="stop-color:#ff6600;stop-opacity:1;"
         offset="0"
         id="stop3387" /></linearGradient><linearGradient
       inkscape:collect="always"
       xlink:href="#linearGradient3715"
       id="linearGradient3717"
       x1="818.41058"
       y1="148.69611"
       x2="559.87469"
       y2="302.27084"
       gradientUnits="userSpaceOnUse" /><linearGradient
       inkscape:collect="always"
       xlink:href="#linearGradient4110"
       id="linearGradient4078"
       x1="871.90204"
       y1="403.09955"
       x2="932.48346"
       y2="403.09955"
       gradientUnits="userSpaceOnUse" /><linearGradient
       inkscape:collect="always"
       xlink:href="#linearGradient4104"
       id="linearGradient4080"
       x1="863.05389"
       y1="415.25452"
       x2="908.76349"
       y2="415.25452"
       gradientUnits="userSpaceOnUse" /><linearGradient
       inkscape:collect="always"
       xlink:href="#linearGradient4076"
       id="linearGradient4082"
       x1="871.67224"
       y1="367.17062"
       x2="937.1803"
       y2="367.17062"
       gradientUnits="userSpaceOnUse" /><linearGradient
       inkscape:collect="always"
       xlink:href="#linearGradient4098"
       id="linearGradient4084"
       x1="872.06543"
       y1="330.94064"
       x2="932.89117"
       y2="330.94064"
       gradientUnits="userSpaceOnUse" /><linearGradient
       inkscape:collect="always"
       xlink:href="#linearGradient4092"
       id="linearGradient4086"
       x1="863.05377"
       y1="318.13321"
       x2="908.20532"
       y2="318.13321"
       gradientUnits="userSpaceOnUse" /><linearGradient
       inkscape:collect="always"
       xlink:href="#linearGradient4158"
       id="linearGradient4160"
       x1="534.76886"
       y1="276.44339"
       x2="836.66864"
       y2="276.44339"
       gradientUnits="userSpaceOnUse" /><linearGradient
       inkscape:collect="always"
       xlink:href="#linearGradient4166"
       id="linearGradient4168"
       x1="863.05377"
       y1="366.77853"
       x2="937.1803"
       y2="366.77853"
       gradientUnits="userSpaceOnUse" /><linearGradient
       inkscape:collect="always"
       xlink:href="#linearGradient4166"
       id="linearGradient4315"
       gradientUnits="userSpaceOnUse"
       x1="863.05377"
       y1="366.77853"
       x2="937.1803"
       y2="366.77853" /><linearGradient
       inkscape:collect="always"
       xlink:href="#linearGradient4166"
       id="linearGradient4317"
       gradientUnits="userSpaceOnUse"
       x1="863.05377"
       y1="366.77853"
       x2="937.1803"
       y2="366.77853" /><linearGradient
       inkscape:collect="always"
       xlink:href="#linearGradient4166"
       id="linearGradient4319"
       gradientUnits="userSpaceOnUse"
       x1="863.05377"
       y1="366.77853"
       x2="937.1803"
       y2="366.77853" /><linearGradient
       inkscape:collect="always"
       xlink:href="#linearGradient4166"
       id="linearGradient4321"
       gradientUnits="userSpaceOnUse"
       x1="863.05377"
       y1="366.77853"
       x2="937.1803"
       y2="366.77853" /><linearGradient
       inkscape:collect="always"
       xlink:href="#linearGradient4166"
       id="linearGradient4323"
       gradientUnits="userSpaceOnUse"
       x1="863.05377"
       y1="366.77853"
       x2="937.1803"
       y2="366.77853" /></defs><g
     inkscape:groupmode="layer"
     id="layer6"
     inkscape:label="Luna"
     transform="translate(-24.612589,-21.309864)"><g
       inkscape:groupmode="layer"
       id="layer10"
       inkscape:label="MediaLuna 3"><text
         xml:space="preserve"
         style="font-size:26.6667px;line-height:1.25;font-family:'French Script MT';-inkscape-font-specification:'French Script MT, Normal';font-variant-ligatures:none"
         x="51.928162"
         y="230.91455"
         id="text744"><tspan
           sodipodi:role="line"
           id="tspan742"
           x="51.928162"
           y="230.91455"
           style="font-size:26.6667px;fill:#ffffff">Media lunas y delicateses</tspan></text></g></g><g
     inkscape:groupmode="layer"
     id="layer7"
     inkscape:label="Luna2"
     transform="translate(-526.17509,-205.30974)"><g
       inkscape:groupmode="layer"
       id="layer9"
       inkscape:label="MediaLuna 2"
       transform="translate(0,-7.17518)"><g
         id="g8109"
         inkscape:export-filename=".\LogoLunaSombreadaChica.svg"
         inkscape:export-xdpi="96"
         inkscape:export-ydpi="96"><text
           xml:space="preserve"
           style="font-size:68.5851px;line-height:1.25;font-family:'Matura MT Script Capitals';-inkscape-font-specification:'Matura MT Script Capitals, Normal';font-variant-ligatures:none;fill:#f3f3f3;fill-opacity:1;stroke-width:2.85776"
           x="30.034227"
           y="182.81535"
           id="text7398"
           transform="translate(501.5625,191.17506)"><tspan
             sodipodi:role="line"
             id="tspan7396"
             x="30.034227"
             y="182.81535"
             style="fill:#f3f3f3;fill-opacity:1;stroke-width:2.85776">C</tspan></text><text
           xml:space="preserve"
           style="font-size:70.7914px;line-height:1.25;font-family:'Matura MT Script Capitals';-inkscape-font-specification:'Matura MT Script Capitals, Normal';font-variant-ligatures:none;fill:#f3f3f3;fill-opacity:1;stroke-width:2.94985"
           x="172.08617"
           y="183.6964"
           id="text7402"
           transform="translate(501.5625,191.17506)"><tspan
             sodipodi:role="line"
             id="tspan7400"
             x="172.08617"
             y="183.6964"
             style="fill:#f3f3f3;fill-opacity:1;stroke-width:2.94985">T</tspan></text><text
           xml:space="preserve"
           style="font-size:50.1392px;line-height:1.25;font-family:'Matura MT Script Capitals';-inkscape-font-specification:'Matura MT Script Capitals, Normal';font-variant-ligatures:none;fill:#f3f3f3;fill-opacity:1;stroke-width:2.08915"
           x="86.556557"
           y="176.46449"
           id="text7406"
           transform="matrix(1.0647723,0,0,0.93916794,501.5625,191.17506)"><tspan
             sodipodi:role="line"
             id="tspan7404"
             x="86.556557"
             y="176.46449"
             style="fill:#f3f3f3;fill-opacity:1;stroke-width:2.08915">uar</tspan></text><text
           xml:space="preserve"
           style="font-size:36.1908px;line-height:1.25;font-family:'Matura MT Script Capitals';-inkscape-font-specification:'Matura MT Script Capitals, Normal';font-variant-ligatures:none;fill:#f3f3f3;fill-opacity:1;stroke-width:1.5079"
           x="92.317734"
           y="191.91777"
           id="text7410"
           transform="translate(501.5625,191.17506)"><tspan
             sodipodi:role="line"
             id="tspan7408"
             x="92.317734"
             y="191.91777"
             style="fill:#f3f3f3;fill-opacity:1;stroke-width:1.5079">recien</tspan></text><text
           xml:space="preserve"
           style="font-size:49.4704px;line-height:1.25;font-family:'Matura MT Script Capitals';-inkscape-font-specification:'Matura MT Script Capitals, Normal';font-variant-ligatures:none;fill:#f3f3f3;fill-opacity:1;stroke-width:2.06119"
           x="206.7858"
           y="185.7514"
           id="text7414"
           transform="matrix(1.0811287,0,0,0.92495926,501.5625,191.17506)"><tspan
             sodipodi:role="line"
             id="tspan7412"
             x="206.7858"
             y="185.7514"
             style="fill:#f3f3f3;fill-opacity:1;stroke-width:2.06119">a</tspan></text><text
           xml:space="preserve"
           style="font-size:37.3494px;line-height:1.25;font-family:'Matura MT Script Capitals';-inkscape-font-specification:'Matura MT Script Capitals, Normal';font-variant-ligatures:none;fill:#f3f3f3;fill-opacity:1;stroke-width:1.55614"
           x="204.4041"
           y="193.16118"
           id="text7418"
           transform="translate(501.5625,191.17506)"><tspan
             sodipodi:role="line"
             id="tspan7416"
             x="204.4041"
             y="193.16118"
             style="fill:#f3f3f3;fill-opacity:1;stroke-width:1.55614">e</tspan></text><text
           xml:space="preserve"
           style="font-size:13.8004px;line-height:1.25;font-family:'Matura MT Script Capitals';-inkscape-font-specification:'Matura MT Script Capitals, Normal';font-variant-ligatures:none;fill:#f3f3f3;fill-opacity:1;stroke-width:0.574995"
           x="102.83904"
           y="208.77147"
           id="text7426"
           transform="translate(501.5625,191.17506)"><tspan
             sodipodi:role="line"
             id="tspan7424"
             x="102.83904"
             y="208.77147"
             style="stroke-width:0.574995">&quot;Pastelería&quot;</tspan></text><path
           style="display:inline;fill:url(#linearGradient3717);fill-opacity:1;stroke:url(#linearGradient4160);stroke-width:1px;stroke-linecap:butt;stroke-linejoin:miter;stroke-opacity:1"
           d="m 824.60938,334.96094 c 0,0 12.30469,-30.07813 11.52344,-55.27344 -0.78125,-25.19531 -1.46485,-33.20312 -8.88672,-54.78516 -7.42188,-21.58203 -19.82422,-38.18359 -25.29297,-45.21484 -5.46875,-7.03125 -19.82422,-21.77734 -31.64063,-28.90625 -11.8164,-7.12891 -24.12109,-18.55469 -64.16015,-25.68359 -40.03907,-7.12891 -71.28907,6.15234 -73.14453,6.44531 -1.85547,0.29297 -21.77735,7.51953 -35.54688,17.67578 -13.76953,10.15625 -25.68359,18.26172 -41.11328,40.52734 -15.42969,22.26563 -21.09375,44.92188 -21.09375,44.92188 0,0 6.19378,-18.04746 17.8638,-33.37732 11.67002,-15.32985 27.34515,-29.69296 48.82075,-39.77475 21.47561,-10.0818 63.49123,-20.8909 108.12014,0.10519 44.6289,20.9961 60.85352,60.45463 60.85352,60.45463 0,0 30.12692,45.55561 1.81503,108.80852 -28.3119,63.25291 -96.69439,72.66381 -96.69439,72.66381 0,0 -21.40656,3.59078 -39.36044,0.13811 -17.95388,-3.45267 -31.28119,-6.76723 -54.41408,-21.75182 -23.13288,-14.98459 -39.98191,-43.36553 -44.67754,-56.00231 -4.69564,-12.63677 5.58337,17.03672 12.22399,27.38828 6.64063,10.35157 11.18511,16.52968 11.18511,16.52968 0,0 13.60352,16.98714 23.20194,24.16869 9.59842,7.18156 22.71857,19.74927 55.79514,29.90012 33.07658,10.15085 65.53168,4.28131 65.53168,4.28131 0,0 23.68531,-2.69308 45.64429,-14.15594 21.95898,-11.46287 33.55995,-22.71857 33.55995,-22.71857 0,0 16.71093,-14.29405 28.58811,-34.04332 11.87718,-19.74928 10.71975,-21.02642 11.29847,-22.32134 z"
           id="path3647"
           sodipodi:nodetypes="csssssssscssscscsssscsscscsc"
           transform="translate(-8.59375,89.98768)" /><g
           id="g484"
           transform="matrix(0.93434808,0,0,1.0013185,-42.858653,-5.1710782)"
           style="stroke:url(#linearGradient4168)"><path
             style="fill:url(#linearGradient4078);fill-opacity:1;stroke:url(#linearGradient4315);stroke-width:5.37;stroke-linecap:round;stroke-linejoin:round;stroke-dasharray:none;stroke-opacity:1"
             d="m 929.79891,392.75632 -6.19812,16.57942 c 0,0 -3.69726,7.14858 -8.53058,9.79892 -4.83328,2.65034 -7.16472,2.01238 -9.85408,1.63353 -2.6889,-0.37843 -14.11463,-7.74471 -17.56691,-10.44739 -3.45199,-2.70229 -9.01766,-7.86316 -10.70042,-10.94218 -1.68306,-3.0787 -2.40283,-6.20866 -2.35998,-9.22635 0.0445,-3.01709 1.68641,-5.00434 1.68641,-5.00434 l 5.85744,3.50406 c 0,0 4.83304,2.64507 13.04433,4.29076 1.89178,0.37914 15.80692,3.2814 21.07686,3.67673 6.00437,0.45043 10.44718,-0.43779 13.54505,-3.86316 z"
             id="path463"
             sodipodi:nodetypes="ccscsccccssc" /><path
             style="fill:url(#linearGradient4080);fill-opacity:1;stroke:url(#linearGradient4317);stroke-width:5.37;stroke-linecap:round;stroke-linejoin:round;stroke-dasharray:none;stroke-opacity:1"
             d="m 906.07889,420.92193 c 0,0 -5.4298,7.71083 -21.87764,11.5592 -15.61197,3.65318 -22.012,-5.55282 -16.51945,-19.57376 4.01698,-10.25395 8.29566,-15.66577 8.29566,-15.66577 l 1.9119,3.68929 4.08364,4.35245 c 0,0 5.40651,5.6763 17.62383,12.88877 5.24447,3.09606 6.48206,2.74982 6.48206,2.74982 z"
             id="path465"
             sodipodi:nodetypes="csscccsc" /><path
             style="fill:url(#linearGradient4082);fill-opacity:1;stroke:url(#linearGradient4319);stroke-width:5.26989;stroke-linecap:round;stroke-linejoin:round;stroke-dasharray:none;stroke-opacity:1"
             d="m 934.14102,381.86963 c 0,0 0.89479,-13.66393 0.0225,-29.96866 -0.87225,-16.30524 -15.46498,-14.50225 -18.15681,-14.23835 -2.69188,0.26295 -25.92921,3.51763 -34.27531,9.07732 -8.34675,5.5606 -7.3878,9.78227 -7.3878,9.78227 l -0.0364,21.63205 c 0,0 -0.0286,3.78302 4.59487,7.22713 4.62396,3.44438 10.33868,5.5645 10.33868,5.5645 0,0 19.43503,5.87868 31.24543,5.93175 11.81062,0.0526 13.83423,-13.06219 13.65453,-15.00803 z"
             id="path467" /><path
             style="fill:url(#linearGradient4084);fill-opacity:1;stroke:url(#linearGradient4321);stroke-width:5.37;stroke-linecap:round;stroke-linejoin:round;stroke-dasharray:none;stroke-opacity:1"
             d="m 930.20658,341.5899 -4.29217,-12.78557 c 0,0 -4.20889,-9.69016 -9.0013,-12.41422 -4.79213,-2.72391 -8.72147,-3.98637 -11.41592,-3.64874 -2.69461,0.33769 -14.23144,7.5282 -17.72467,10.17769 -3.493,2.64897 -9.13694,7.72439 -10.86691,10.77677 -1.72982,3.05255 -2.15185,4.85935 -2.15515,7.87715 -0.004,3.01744 1.48551,7.63076 1.48551,7.63076 l 4.2264,-3.02262 c 0,0 7.39307,-3.22613 11.10175,-3.99565 9.47001,-2.0391 31.09166,-9.00999 38.64246,-0.59557 z"
             id="path469"
             sodipodi:nodetypes="ccssccccccc" /><path
             style="fill:url(#linearGradient4086);fill-opacity:1;stroke:url(#linearGradient4323);stroke-width:5.37;stroke-linecap:round;stroke-linejoin:round;stroke-dasharray:none;stroke-opacity:1"
             d="m 905.52061,312.76171 c 0,0 -4.91823,-7.78756 -21.35971,-11.66533 -15.60523,-3.68036 -21.95269,5.37604 -16.48473,19.40671 3.9989,10.26103 8.07855,15.47368 8.07855,15.47368 l 1.65111,-3.01511 c 0,0 3.87916,-6.27155 14.39439,-12.75771 3.35712,-2.07079 6.66513,-4.36156 11.73925,-6.79405 1.53912,-0.73784 1.98114,-0.64819 1.98114,-0.64819 z"
             id="path471"
             sodipodi:nodetypes="cssccssc" /></g></g></g></g></svg>
