<?xml version="1.0" encoding="UTF-8" standalone="no"?>
<!-- Created with Inkscape (http://www.inkscape.org/) -->

<svg
   width="301.89978"
   height="307.89227"
   viewBox="0 0 301.89978 307.89227"
   version="1.1"
   id="svg5"
   xml:space="preserve"
   inkscape:version="1.2 (dc2aedaf03, 2022-05-15)"
   sodipodi:docname="LogoCuartaCreciente.svg"
   inkscape:export-filename="LogoCuartaCrecienteNegra.svg"
   inkscape:export-xdpi="96"
   inkscape:export-ydpi="96"
   xmlns:inkscape="http://www.inkscape.org/namespaces/inkscape"
   xmlns:sodipodi="http://sodipodi.sourceforge.net/DTD/sodipodi-0.dtd"
   xmlns:xlink="http://www.w3.org/1999/xlink"
   xmlns="http://www.w3.org/2000/svg"
   xmlns:svg="http://www.w3.org/2000/svg"><sodipodi:namedview
     id="namedview7"
     pagecolor="#505050"
     bordercolor="#eeeeee"
     borderopacity="1"
     inkscape:showpageshadow="0"
     inkscape:pageopacity="0"
     inkscape:pagecheckerboard="0"
     inkscape:deskcolor="#505050"
     inkscape:document-units="px"
     showgrid="true"
     inkscape:zoom="1.28"
     inkscape:cx="382.8125"
     inkscape:cy="327.73438"
     inkscape:window-width="1920"
     inkscape:window-height="1080"
     inkscape:window-x="-8"
     inkscape:window-y="-8"
     inkscape:window-maximized="0"
     inkscape:current-layer="svg5"
     showguides="true"><inkscape:grid
       type="xygrid"
       id="grid291" /><sodipodi:guide
       position="-1396.2414,-28.224308"
       orientation="0,-1"
       id="guide293"
       inkscape:locked="false" /><sodipodi:guide
       position="-379.77541,199.37569"
       orientation="1,0"
       id="guide295"
       inkscape:locked="false" /></sodipodi:namedview><defs
     id="defs2"><linearGradient
       inkscape:collect="always"
       id="linearGradient8059"><stop
         style="stop-color:#4f4f4f;stop-opacity:1;"
         offset="0"
         id="stop8055" /><stop
         style="stop-color:#4f4f4f;stop-opacity:0;"
         offset="0.24722223"
         id="stop8057" /></linearGradient><linearGradient
       inkscape:collect="always"
       id="linearGradient4196"><stop
         style="stop-color:#5b5b5b;stop-opacity:1;"
         offset="0"
         id="stop4192" /><stop
         style="stop-color:#252525;stop-opacity:0.89473689;"
         offset="1"
         id="stop4194" /></linearGradient><linearGradient
       id="linearGradient3389"
       inkscape:swatch="solid"><stop
         style="stop-color:#ff6600;stop-opacity:1;"
         offset="0"
         id="stop3387" /></linearGradient><linearGradient
       inkscape:collect="always"
       xlink:href="#linearGradient4196"
       id="linearGradient4198"
       x1="1222.6562"
       y1="426.5625"
       x2="1009.375"
       y2="628.90625"
       gradientUnits="userSpaceOnUse"
       gradientTransform="translate(99.436887,-382.2796)" /><linearGradient
       inkscape:collect="always"
       xlink:href="#linearGradient8059"
       id="linearGradient8061"
       x1="763.17157"
       y1="360.42596"
       x2="833.22357"
       y2="360.42596"
       gradientUnits="userSpaceOnUse" /><linearGradient
       inkscape:collect="always"
       xlink:href="#linearGradient8059"
       id="linearGradient8063"
       gradientUnits="userSpaceOnUse"
       x1="763.17157"
       y1="360.42596"
       x2="833.22357"
       y2="360.42596" /><linearGradient
       inkscape:collect="always"
       xlink:href="#linearGradient8059"
       id="linearGradient8065"
       gradientUnits="userSpaceOnUse"
       x1="763.17157"
       y1="360.42596"
       x2="833.22357"
       y2="360.42596" /><linearGradient
       inkscape:collect="always"
       xlink:href="#linearGradient8059"
       id="linearGradient8067"
       gradientUnits="userSpaceOnUse"
       x1="763.17157"
       y1="360.42596"
       x2="833.22357"
       y2="360.42596" /><linearGradient
       inkscape:collect="always"
       xlink:href="#linearGradient8059"
       id="linearGradient8069"
       gradientUnits="userSpaceOnUse"
       x1="763.17157"
       y1="360.42596"
       x2="833.22357"
       y2="360.42596" /><linearGradient
       inkscape:collect="always"
       xlink:href="#linearGradient8059"
       id="linearGradient8071"
       gradientUnits="userSpaceOnUse"
       x1="763.17157"
       y1="360.42596"
       x2="833.22357"
       y2="360.42596" /></defs><g
     inkscape:groupmode="layer"
     id="layer8"
     inkscape:label="Luna3"
     transform="translate(-1050.422,-24.065939)"><path
       style="display:inline;fill:url(#linearGradient4198);fill-opacity:1;stroke:#969696;stroke-width:1px;stroke-linecap:butt;stroke-linejoin:miter;stroke-opacity:1"
       d="m 1340.2625,236.52964 c 0,0 12.3047,-30.07813 11.5235,-55.27344 -0.7813,-25.19531 -1.4649,-33.20312 -8.8867,-54.78516 -7.4219,-21.58203 -19.8243,-38.183595 -25.293,-45.214845 -5.4688,-7.03125 -19.8242,-21.77734 -31.6406,-28.90625 -11.8164,-7.12891 -24.1211,-18.55469 -64.1602,-25.68359 -40.0391,-7.12891 -71.2891,6.15234 -73.1445,6.44531 -1.8555,0.29297 -21.7774,7.51953 -35.5469,17.67578 -13.7695,10.15625 -25.6836,18.26172 -41.1133,40.52734 -15.4297,22.265635 -21.0937,44.921885 -21.0937,44.921885 0,0 6.1938,-18.04746 17.8638,-33.37732 11.67,-15.329855 27.3451,-29.692965 48.8207,-39.774755 21.4756,-10.0818 63.4913,-20.8909 108.1202,0.10519 44.6289,20.9961 60.8535,60.454635 60.8535,60.454635 0,0 30.1269,45.55561 1.815,108.80852 -28.3119,63.25291 -96.6944,72.66381 -96.6944,72.66381 0,0 -21.4065,3.59078 -39.3604,0.13811 -17.9539,-3.45267 -31.2812,-6.76723 -54.4141,-21.75182 -23.1329,-14.98459 -39.9819,-43.36553 -44.6775,-56.00231 -4.6957,-12.63677 5.5833,17.03672 12.224,27.38828 6.6406,10.35157 11.1851,16.52968 11.1851,16.52968 0,0 13.6035,16.98714 23.2019,24.16869 9.5984,7.18156 22.7186,19.74927 55.7951,29.90012 33.0766,10.15085 65.5317,4.28131 65.5317,4.28131 0,0 23.6853,-2.69308 45.6443,-14.15594 21.959,-11.46287 33.56,-22.71857 33.56,-22.71857 0,0 16.7109,-14.29405 28.5881,-34.04332 11.8772,-19.74928 10.7197,-21.02642 11.2984,-22.32134 z"
       id="path3634"
       sodipodi:nodetypes="csssssssscssscscsssscsscscsc" /><g
       id="g491"
       transform="matrix(0.81499398,0.01323475,-0.01189024,1.0359454,676.97554,-203.98618)"
       style="display:inline;fill:url(#linearGradient8061);fill-opacity:1;fill-rule:nonzero;stroke:#000000;stroke-width:1.29813;stroke-dasharray:none;stroke-opacity:1"><path
         style="fill:url(#linearGradient8063);fill-opacity:1;fill-rule:nonzero;stroke:#000000;stroke-width:1.29813;stroke-linecap:butt;stroke-linejoin:miter;stroke-dasharray:none;stroke-opacity:1"
         d="m 827.8761,386.40341 -6.19812,16.57942 c 0,0 -3.69726,7.14858 -8.53058,9.79892 -4.83328,2.65034 -7.16472,2.01238 -9.85408,1.63353 -2.6889,-0.37843 -14.11463,-7.74471 -17.56691,-10.44739 -3.45199,-2.70229 -9.01766,-7.86316 -10.70042,-10.94218 -1.68306,-3.0787 -2.40283,-6.20866 -2.35998,-9.22635 0.0445,-3.01709 1.68641,-5.00434 1.68641,-5.00434 l 5.85744,3.50406 c 0,0 4.83304,2.64507 13.04433,4.29076 1.89178,0.37914 15.80692,3.2814 21.07686,3.67673 6.00437,0.45043 10.44718,-0.43779 13.54505,-3.86316 z"
         id="path338"
         sodipodi:nodetypes="ccscsccccssc" /><path
         style="fill:url(#linearGradient8065);fill-opacity:1;fill-rule:nonzero;stroke:#000000;stroke-width:1.29813;stroke-linecap:butt;stroke-linejoin:miter;stroke-dasharray:none;stroke-opacity:1"
         d="m 804.15608,414.56902 c 0,0 -5.4298,7.71083 -21.87764,11.5592 -15.61197,3.65318 -22.012,-5.55282 -16.51945,-19.57376 4.01698,-10.25395 8.29566,-15.66577 8.29566,-15.66577 l 1.9119,3.68929 4.08364,4.35245 c 0,0 5.40651,5.6763 17.62383,12.88877 5.24447,3.09606 6.48206,2.74982 6.48206,2.74982 z"
         id="path340"
         sodipodi:nodetypes="csscccsc" /><path
         style="fill:url(#linearGradient8067);fill-opacity:1;fill-rule:nonzero;stroke:#000000;stroke-width:1.29813;stroke-linecap:butt;stroke-linejoin:miter;stroke-dasharray:none;stroke-opacity:1"
         d="m 832.1539,375.49284 c 0,0 0.93062,-13.64173 0.0234,-29.91998 -0.90718,-16.27875 -16.08427,-14.47869 -18.88389,-14.21522 -2.79967,0.26253 -26.96752,3.51192 -35.64784,9.06258 -8.68099,5.55157 -7.68364,9.76638 -7.68364,9.76638 l -0.0378,21.59691 c 0,0 -0.0297,3.77687 4.77887,7.21539 4.80912,3.43878 10.75268,5.55546 10.75268,5.55546 0,0 20.21329,5.86913 32.49663,5.92211 12.28357,0.0525 14.38821,-13.04097 14.20132,-14.98365 z"
         id="path391" /><path
         style="fill:url(#linearGradient8069);fill-opacity:1;fill-rule:nonzero;stroke:#000000;stroke-width:1.29813;stroke-linecap:butt;stroke-linejoin:miter;stroke-dasharray:none;stroke-opacity:1"
         d="m 828.28377,335.23699 -4.29217,-12.78557 c 0,0 -4.20889,-9.69016 -9.0013,-12.41422 -4.79213,-2.72391 -8.72147,-3.98637 -11.41592,-3.64874 -2.69461,0.33769 -14.23144,7.5282 -17.72467,10.17769 -3.493,2.64897 -9.13694,7.72439 -10.86691,10.77677 -1.72982,3.05255 -2.15185,4.85935 -2.15515,7.87715 -0.004,3.01744 1.48551,7.63076 1.48551,7.63076 l 4.2264,-3.02262 c 0,0 7.39307,-3.22613 11.10175,-3.99565 9.47001,-2.0391 31.09166,-9.00999 38.64246,-0.59557 z"
         id="path393"
         sodipodi:nodetypes="ccssccccccc" /><path
         style="fill:url(#linearGradient8071);fill-opacity:1;fill-rule:nonzero;stroke:#000000;stroke-width:1.29813;stroke-linecap:butt;stroke-linejoin:miter;stroke-dasharray:none;stroke-opacity:1"
         d="m 803.5978,306.4088 c 0,0 -4.91823,-7.78756 -21.35971,-11.66533 -15.60523,-3.68036 -21.95269,5.37604 -16.48473,19.40671 3.9989,10.26103 8.07855,15.47368 8.07855,15.47368 l 1.65111,-3.01511 c 0,0 3.87916,-6.27155 14.39439,-12.75771 3.35712,-2.07079 6.66513,-4.36156 11.73925,-6.79405 1.53912,-0.73784 1.98114,-0.64819 1.98114,-0.64819 z"
         id="path395"
         sodipodi:nodetypes="cssccssc" /></g></g></svg>
