<?xml version="1.0" encoding="UTF-8" standalone="no"?>
<!-- Created with Inkscape (http://www.inkscape.org/) -->

<svg
   width="69.175659"
   height="138.59174"
   viewBox="0 0 69.175659 138.59174"
   version="1.1"
   id="svg5"
   xml:space="preserve"
   inkscape:version="1.2 (dc2aedaf03, 2022-05-15)"
   sodipodi:docname="LogoCuartaCreciente.svg"
   inkscape:export-filename=".weLogoCuartaCrecienteBlancaGrisTransparente.webp"
   inkscape:export-xdpi="93.487976"
   inkscape:export-ydpi="93.487976"
   xmlns:inkscape="http://www.inkscape.org/namespaces/inkscape"
   xmlns:sodipodi="http://sodipodi.sourceforge.net/DTD/sodipodi-0.dtd"
   xmlns:xlink="http://www.w3.org/1999/xlink"
   xmlns="http://www.w3.org/2000/svg"
   xmlns:svg="http://www.w3.org/2000/svg"><sodipodi:namedview
     id="namedview7"
     pagecolor="#505050"
     bordercolor="#eeeeee"
     borderopacity="1"
     inkscape:showpageshadow="0"
     inkscape:pageopacity="0"
     inkscape:pagecheckerboard="0"
     inkscape:deskcolor="#505050"
     inkscape:document-units="px"
     showgrid="false"
     inkscape:zoom="0.90509668"
     inkscape:cx="630.87183"
     inkscape:cy="329.79902"
     inkscape:window-width="1920"
     inkscape:window-height="1080"
     inkscape:window-x="-8"
     inkscape:window-y="-8"
     inkscape:window-maximized="0"
     inkscape:current-layer="layer4"
     showguides="true"><inkscape:grid
       type="xygrid"
       id="grid291" /><sodipodi:guide
       position="-1576.7075,210.05436"
       orientation="0,-1"
       id="guide293"
       inkscape:locked="false" /><sodipodi:guide
       position="-560.24148,437.65436"
       orientation="1,0"
       id="guide295"
       inkscape:locked="false" /></sodipodi:namedview><defs
     id="defs2"><linearGradient
       inkscape:collect="always"
       id="linearGradient3421"><stop
         style="stop-color:#ff6804;stop-opacity:0;"
         offset="0"
         id="stop3417" /><stop
         style="stop-color:#ff6600;stop-opacity:1;"
         offset="0.54415953"
         id="stop3419" /></linearGradient><linearGradient
       inkscape:collect="always"
       id="linearGradient3397"><stop
         style="stop-color:#ff6600;stop-opacity:0;"
         offset="0"
         id="stop3395" /><stop
         style="stop-color:#ff6600;stop-opacity:1;"
         offset="1"
         id="stop3393" /></linearGradient><linearGradient
       id="linearGradient3389"
       inkscape:swatch="solid"><stop
         style="stop-color:#ff6600;stop-opacity:1;"
         offset="0"
         id="stop3387" /></linearGradient><linearGradient
       inkscape:collect="always"
       xlink:href="#linearGradient3421"
       id="linearGradient3403"
       x1="763.68903"
       y1="360.42603"
       x2="832.70728"
       y2="360.42603"
       gradientUnits="userSpaceOnUse"
       spreadMethod="pad" /><linearGradient
       inkscape:collect="always"
       xlink:href="#linearGradient3397"
       id="linearGradient3407"
       gradientUnits="userSpaceOnUse"
       x1="763.68903"
       y1="360.42603"
       x2="832.70728"
       y2="360.42603"
       spreadMethod="pad" /><linearGradient
       inkscape:collect="always"
       xlink:href="#linearGradient3397"
       id="linearGradient3409"
       gradientUnits="userSpaceOnUse"
       x1="763.68903"
       y1="360.42603"
       x2="832.70728"
       y2="360.42603"
       spreadMethod="pad" /><linearGradient
       inkscape:collect="always"
       xlink:href="#linearGradient3397"
       id="linearGradient3411"
       gradientUnits="userSpaceOnUse"
       x1="763.68903"
       y1="360.42603"
       x2="832.70728"
       y2="360.42603"
       spreadMethod="pad" /><linearGradient
       inkscape:collect="always"
       xlink:href="#linearGradient3397"
       id="linearGradient3413"
       gradientUnits="userSpaceOnUse"
       x1="763.68903"
       y1="360.42603"
       x2="832.70728"
       y2="360.42603"
       spreadMethod="pad" /><linearGradient
       inkscape:collect="always"
       xlink:href="#linearGradient3397"
       id="linearGradient3415"
       gradientUnits="userSpaceOnUse"
       x1="763.68903"
       y1="360.42603"
       x2="832.70728"
       y2="360.42603"
       spreadMethod="pad" /><linearGradient
       inkscape:collect="always"
       xlink:href="#linearGradient3397"
       id="linearGradient3512"
       gradientUnits="userSpaceOnUse"
       x1="763.68903"
       y1="360.42603"
       x2="832.70728"
       y2="360.42603"
       spreadMethod="pad" /><linearGradient
       inkscape:collect="always"
       xlink:href="#linearGradient3397"
       id="linearGradient3514"
       gradientUnits="userSpaceOnUse"
       x1="763.68903"
       y1="360.42603"
       x2="832.70728"
       y2="360.42603"
       spreadMethod="pad" /><linearGradient
       inkscape:collect="always"
       xlink:href="#linearGradient3397"
       id="linearGradient3516"
       gradientUnits="userSpaceOnUse"
       x1="763.68903"
       y1="360.42603"
       x2="832.70728"
       y2="360.42603"
       spreadMethod="pad" /><linearGradient
       inkscape:collect="always"
       xlink:href="#linearGradient3397"
       id="linearGradient3518"
       gradientUnits="userSpaceOnUse"
       x1="763.68903"
       y1="360.42603"
       x2="832.70728"
       y2="360.42603"
       spreadMethod="pad" /><linearGradient
       inkscape:collect="always"
       xlink:href="#linearGradient3397"
       id="linearGradient3520"
       gradientUnits="userSpaceOnUse"
       x1="763.68903"
       y1="360.42603"
       x2="832.70728"
       y2="360.42603"
       spreadMethod="pad" /><linearGradient
       inkscape:collect="always"
       xlink:href="#linearGradient3421"
       id="linearGradient3522"
       gradientUnits="userSpaceOnUse"
       x1="763.68903"
       y1="360.42603"
       x2="832.70728"
       y2="360.42603"
       spreadMethod="pad" /><linearGradient
       inkscape:collect="always"
       xlink:href="#linearGradient3397"
       id="linearGradient3542"
       gradientUnits="userSpaceOnUse"
       x1="763.68903"
       y1="360.42603"
       x2="832.70728"
       y2="360.42603"
       spreadMethod="pad" /><linearGradient
       inkscape:collect="always"
       xlink:href="#linearGradient3397"
       id="linearGradient3544"
       gradientUnits="userSpaceOnUse"
       x1="763.68903"
       y1="360.42603"
       x2="832.70728"
       y2="360.42603"
       spreadMethod="pad" /><linearGradient
       inkscape:collect="always"
       xlink:href="#linearGradient3397"
       id="linearGradient3546"
       gradientUnits="userSpaceOnUse"
       x1="763.68903"
       y1="360.42603"
       x2="832.70728"
       y2="360.42603"
       spreadMethod="pad" /><linearGradient
       inkscape:collect="always"
       xlink:href="#linearGradient3397"
       id="linearGradient3548"
       gradientUnits="userSpaceOnUse"
       x1="763.68903"
       y1="360.42603"
       x2="832.70728"
       y2="360.42603"
       spreadMethod="pad" /><linearGradient
       inkscape:collect="always"
       xlink:href="#linearGradient3397"
       id="linearGradient3550"
       gradientUnits="userSpaceOnUse"
       x1="763.68903"
       y1="360.42603"
       x2="832.70728"
       y2="360.42603"
       spreadMethod="pad" /><linearGradient
       inkscape:collect="always"
       xlink:href="#linearGradient3421"
       id="linearGradient3552"
       gradientUnits="userSpaceOnUse"
       x1="763.68903"
       y1="360.42603"
       x2="832.70728"
       y2="360.42603"
       spreadMethod="pad" /></defs><g
     inkscape:groupmode="layer"
     id="layer4"
     inkscape:label="MediaLuna"
     style="display:inline"
     transform="translate(-1230.8881,-431.64514)"><g
       id="g3498"
       transform="translate(364.58914,73.615561)"
       inkscape:export-filename=".\MediaLuna.svg"
       inkscape:export-xdpi="96"
       inkscape:export-ydpi="96"><g
         id="g3459"
         transform="matrix(0.91244325,0,0,1.0017665,78.811381,59.898997)"><path
           style="fill:none;stroke:#000000;stroke-width:5.37;stroke-linecap:round;stroke-linejoin:round;stroke-dasharray:none;stroke-opacity:1"
           d="m 929.79891,392.75632 -6.19812,16.57942 c 0,0 -3.69726,7.14858 -8.53058,9.79892 -4.83328,2.65034 -7.16472,2.01238 -9.85408,1.63353 -2.6889,-0.37843 -14.11463,-7.74471 -17.56691,-10.44739 -3.45199,-2.70229 -9.01766,-7.86316 -10.70042,-10.94218 -1.68306,-3.0787 -2.40283,-6.20866 -2.35998,-9.22635 0.0445,-3.01709 1.68641,-5.00434 1.68641,-5.00434 l 5.85744,3.50406 c 0,0 4.83304,2.64507 13.04433,4.29076 1.89178,0.37914 15.80692,3.2814 21.07686,3.67673 6.00437,0.45043 10.44718,-0.43779 13.54505,-3.86316 z"
           id="path3449"
           sodipodi:nodetypes="ccscsccccssc" /><path
           style="fill:none;stroke:#000000;stroke-width:5.37;stroke-linecap:round;stroke-linejoin:round;stroke-dasharray:none;stroke-opacity:1"
           d="m 906.07889,420.92193 c 0,0 -5.4298,7.71083 -21.87764,11.5592 -15.61197,3.65318 -22.012,-5.55282 -16.51945,-19.57376 4.01698,-10.25395 8.29566,-15.66577 8.29566,-15.66577 l 1.9119,3.68929 4.08364,4.35245 c 0,0 5.40651,5.6763 17.62383,12.88877 5.24447,3.09606 6.48206,2.74982 6.48206,2.74982 z"
           id="path3451"
           sodipodi:nodetypes="csscccsc" /><path
           style="fill:none;stroke:#000000;stroke-width:5.26989;stroke-linecap:round;stroke-linejoin:round;stroke-dasharray:none;stroke-opacity:1"
           d="m 934.14102,381.86963 c 0,0 0.89479,-13.66393 0.0225,-29.96866 -0.87225,-16.30524 -15.46498,-14.50225 -18.15681,-14.23835 -2.69188,0.26295 -25.92921,3.51763 -34.27531,9.07732 -8.34675,5.5606 -7.3878,9.78227 -7.3878,9.78227 l -0.0364,21.63205 c 0,0 -0.0286,3.78302 4.59487,7.22713 4.62396,3.44438 10.33868,5.5645 10.33868,5.5645 0,0 19.43503,5.87868 31.24543,5.93175 11.81062,0.0526 13.83423,-13.06219 13.65453,-15.00803 z"
           id="path3453" /><path
           style="fill:none;stroke:#000000;stroke-width:5.37;stroke-linecap:round;stroke-linejoin:round;stroke-dasharray:none;stroke-opacity:1"
           d="m 930.20658,341.5899 -4.29217,-12.78557 c 0,0 -4.20889,-9.69016 -9.0013,-12.41422 -4.79213,-2.72391 -8.72147,-3.98637 -11.41592,-3.64874 -2.69461,0.33769 -14.23144,7.5282 -17.72467,10.17769 -3.493,2.64897 -9.13694,7.72439 -10.86691,10.77677 -1.72982,3.05255 -2.15185,4.85935 -2.15515,7.87715 -0.004,3.01744 1.48551,7.63076 1.48551,7.63076 l 4.2264,-3.02262 c 0,0 7.39307,-3.22613 11.10175,-3.99565 9.47001,-2.0391 31.09166,-9.00999 38.64246,-0.59557 z"
           id="path3455"
           sodipodi:nodetypes="ccssccccccc" /><path
           style="fill:none;stroke:#000000;stroke-width:5.37;stroke-linecap:round;stroke-linejoin:round;stroke-dasharray:none;stroke-opacity:1"
           d="m 905.52061,312.76171 c 0,0 -4.91823,-7.78756 -21.35971,-11.66533 -15.60523,-3.68036 -21.95269,5.37604 -16.48473,19.40671 3.9989,10.26103 8.07855,15.47368 8.07855,15.47368 l 1.65111,-3.01511 c 0,0 3.87916,-6.27155 14.39439,-12.75771 3.35712,-2.07079 6.66513,-4.36156 11.73925,-6.79405 1.53912,-0.73784 1.98114,-0.64819 1.98114,-0.64819 z"
           id="path3457"
           sodipodi:nodetypes="cssccssc" /></g><g
         id="g3447"
         transform="matrix(0.96585887,0.01322454,-0.01409127,1.0351454,-32.333307,119.7241)"><g
           id="g3433"
           transform="translate(173.4375,-75.390625)"
           style="fill:url(#linearGradient3522);fill-opacity:1;fill-rule:nonzero"><path
             style="fill:url(#linearGradient3512);fill-opacity:1;fill-rule:nonzero;stroke:#000000;stroke-width:0.265504px;stroke-linecap:butt;stroke-linejoin:miter;stroke-opacity:1"
             d="m 827.8761,386.40341 -6.19812,16.57942 c 0,0 -3.69726,7.14858 -8.53058,9.79892 -4.83328,2.65034 -7.16472,2.01238 -9.85408,1.63353 -2.6889,-0.37843 -14.11463,-7.74471 -17.56691,-10.44739 -3.45199,-2.70229 -9.01766,-7.86316 -10.70042,-10.94218 -1.68306,-3.0787 -2.40283,-6.20866 -2.35998,-9.22635 0.0445,-3.01709 1.68641,-5.00434 1.68641,-5.00434 l 5.85744,3.50406 c 0,0 4.83304,2.64507 13.04433,4.29076 1.89178,0.37914 15.80692,3.2814 21.07686,3.67673 6.00437,0.45043 10.44718,-0.43779 13.54505,-3.86316 z"
             id="path3423"
             sodipodi:nodetypes="ccscsccccssc" /><path
             style="fill:url(#linearGradient3514);fill-opacity:1;fill-rule:nonzero;stroke:#000000;stroke-width:0.265504px;stroke-linecap:butt;stroke-linejoin:miter;stroke-opacity:1"
             d="m 804.15608,414.56902 c 0,0 -5.4298,7.71083 -21.87764,11.5592 -15.61197,3.65318 -22.012,-5.55282 -16.51945,-19.57376 4.01698,-10.25395 8.29566,-15.66577 8.29566,-15.66577 l 1.9119,3.68929 4.08364,4.35245 c 0,0 5.40651,5.6763 17.62383,12.88877 5.24447,3.09606 6.48206,2.74982 6.48206,2.74982 z"
             id="path3425"
             sodipodi:nodetypes="csscccsc" /><path
             style="fill:url(#linearGradient3516);fill-opacity:1;fill-rule:nonzero;stroke:#000000;stroke-width:0.265504px;stroke-linecap:butt;stroke-linejoin:miter;stroke-opacity:1"
             d="m 832.1539,375.49284 c 0,0 0.93062,-13.64173 0.0234,-29.91998 -0.90718,-16.27875 -16.08427,-14.47869 -18.88389,-14.21522 -2.79967,0.26253 -26.96752,3.51192 -35.64784,9.06258 -8.68099,5.55157 -7.68364,9.76638 -7.68364,9.76638 l -0.0378,21.59691 c 0,0 -0.0297,3.77687 4.77887,7.21539 4.80912,3.43878 10.75268,5.55546 10.75268,5.55546 0,0 20.21329,5.86913 32.49663,5.92211 12.28357,0.0525 14.38821,-13.04097 14.20132,-14.98365 z"
             id="path3427" /><path
             style="fill:url(#linearGradient3518);fill-opacity:1;fill-rule:nonzero;stroke:#000000;stroke-width:0.265504px;stroke-linecap:butt;stroke-linejoin:miter;stroke-opacity:1"
             d="m 828.28377,335.23699 -4.29217,-12.78557 c 0,0 -4.20889,-9.69016 -9.0013,-12.41422 -4.79213,-2.72391 -8.72147,-3.98637 -11.41592,-3.64874 -2.69461,0.33769 -14.23144,7.5282 -17.72467,10.17769 -3.493,2.64897 -9.13694,7.72439 -10.86691,10.77677 -1.72982,3.05255 -2.15185,4.85935 -2.15515,7.87715 -0.004,3.01744 1.48551,7.63076 1.48551,7.63076 l 4.2264,-3.02262 c 0,0 7.39307,-3.22613 11.10175,-3.99565 9.47001,-2.0391 31.09166,-9.00999 38.64246,-0.59557 z"
             id="path3429"
             sodipodi:nodetypes="ccssccccccc" /><path
             style="fill:url(#linearGradient3520);fill-opacity:1;fill-rule:nonzero;stroke:#000000;stroke-width:0.265504px;stroke-linecap:butt;stroke-linejoin:miter;stroke-opacity:1"
             d="m 803.5978,306.4088 c 0,0 -4.91823,-7.78756 -21.35971,-11.66533 -15.60523,-3.68036 -21.95269,5.37604 -16.48473,19.40671 3.9989,10.26103 8.07855,15.47368 8.07855,15.47368 l 1.65111,-3.01511 c 0,0 3.87916,-6.27155 14.39439,-12.75771 3.35712,-2.07079 6.66513,-4.36156 11.73925,-6.79405 1.53912,-0.73784 1.98114,-0.64819 1.98114,-0.64819 z"
             id="path3431"
             sodipodi:nodetypes="cssccssc" /></g><g
           id="g3510"
           transform="translate(173.4375,-75.390625)"
           style="display:inline;fill:url(#linearGradient3552);fill-opacity:1;fill-rule:nonzero"
           inkscape:label="g3510"><path
             style="fill:url(#linearGradient3542);fill-opacity:1;fill-rule:nonzero;stroke:#000000;stroke-width:0.265504px;stroke-linecap:butt;stroke-linejoin:miter;stroke-opacity:1"
             d="m 827.8761,386.40341 -6.19812,16.57942 c 0,0 -3.69726,7.14858 -8.53058,9.79892 -4.83328,2.65034 -7.16472,2.01238 -9.85408,1.63353 -2.6889,-0.37843 -14.11463,-7.74471 -17.56691,-10.44739 -3.45199,-2.70229 -9.01766,-7.86316 -10.70042,-10.94218 -1.68306,-3.0787 -2.40283,-6.20866 -2.35998,-9.22635 0.0445,-3.01709 1.68641,-5.00434 1.68641,-5.00434 l 5.85744,3.50406 c 0,0 4.83304,2.64507 13.04433,4.29076 1.89178,0.37914 15.80692,3.2814 21.07686,3.67673 6.00437,0.45043 10.44718,-0.43779 13.54505,-3.86316 z"
             id="path3500"
             sodipodi:nodetypes="ccscsccccssc" /><path
             style="fill:url(#linearGradient3544);fill-opacity:1;fill-rule:nonzero;stroke:#000000;stroke-width:0.265504px;stroke-linecap:butt;stroke-linejoin:miter;stroke-opacity:1"
             d="m 804.15608,414.56902 c 0,0 -5.4298,7.71083 -21.87764,11.5592 -15.61197,3.65318 -22.012,-5.55282 -16.51945,-19.57376 4.01698,-10.25395 8.29566,-15.66577 8.29566,-15.66577 l 1.9119,3.68929 4.08364,4.35245 c 0,0 5.40651,5.6763 17.62383,12.88877 5.24447,3.09606 6.48206,2.74982 6.48206,2.74982 z"
             id="path3502"
             sodipodi:nodetypes="csscccsc" /><path
             style="fill:url(#linearGradient3546);fill-opacity:1;fill-rule:nonzero;stroke:#000000;stroke-width:0.265504px;stroke-linecap:butt;stroke-linejoin:miter;stroke-opacity:1"
             d="m 832.1539,375.49284 c 0,0 0.93062,-13.64173 0.0234,-29.91998 -0.90718,-16.27875 -16.08427,-14.47869 -18.88389,-14.21522 -2.79967,0.26253 -26.96752,3.51192 -35.64784,9.06258 -8.68099,5.55157 -7.68364,9.76638 -7.68364,9.76638 l -0.0378,21.59691 c 0,0 -0.0297,3.77687 4.77887,7.21539 4.80912,3.43878 10.75268,5.55546 10.75268,5.55546 0,0 20.21329,5.86913 32.49663,5.92211 12.28357,0.0525 14.38821,-13.04097 14.20132,-14.98365 z"
             id="path3504" /><path
             style="fill:url(#linearGradient3548);fill-opacity:1;fill-rule:nonzero;stroke:#000000;stroke-width:0.265504px;stroke-linecap:butt;stroke-linejoin:miter;stroke-opacity:1"
             d="m 828.28377,335.23699 -4.29217,-12.78557 c 0,0 -4.20889,-9.69016 -9.0013,-12.41422 -4.79213,-2.72391 -8.72147,-3.98637 -11.41592,-3.64874 -2.69461,0.33769 -14.23144,7.5282 -17.72467,10.17769 -3.493,2.64897 -9.13694,7.72439 -10.86691,10.77677 -1.72982,3.05255 -2.15185,4.85935 -2.15515,7.87715 -0.004,3.01744 1.48551,7.63076 1.48551,7.63076 l 4.2264,-3.02262 c 0,0 7.39307,-3.22613 11.10175,-3.99565 9.47001,-2.0391 31.09166,-9.00999 38.64246,-0.59557 z"
             id="path3506"
             sodipodi:nodetypes="ccssccccccc" /><path
             style="fill:url(#linearGradient3550);fill-opacity:1;fill-rule:nonzero;stroke:#000000;stroke-width:0.265504px;stroke-linecap:butt;stroke-linejoin:miter;stroke-opacity:1"
             d="m 803.5978,306.4088 c 0,0 -4.91823,-7.78756 -21.35971,-11.66533 -15.60523,-3.68036 -21.95269,5.37604 -16.48473,19.40671 3.9989,10.26103 8.07855,15.47368 8.07855,15.47368 l 1.65111,-3.01511 c 0,0 3.87916,-6.27155 14.39439,-12.75771 3.35712,-2.07079 6.66513,-4.36156 11.73925,-6.79405 1.53912,-0.73784 1.98114,-0.64819 1.98114,-0.64819 z"
             id="path3508"
             sodipodi:nodetypes="cssccssc" /></g><g
           id="g3540"
           transform="translate(173.4375,-75.390625)"
           style="display:inline;fill:url(#linearGradient3403);fill-opacity:1;fill-rule:nonzero"
           inkscape:label="g3510"><path
             style="fill:url(#linearGradient3407);fill-opacity:1;fill-rule:nonzero;stroke:#000000;stroke-width:0.265504px;stroke-linecap:butt;stroke-linejoin:miter;stroke-opacity:1"
             d="m 827.8761,386.40341 -6.19812,16.57942 c 0,0 -3.69726,7.14858 -8.53058,9.79892 -4.83328,2.65034 -7.16472,2.01238 -9.85408,1.63353 -2.6889,-0.37843 -14.11463,-7.74471 -17.56691,-10.44739 -3.45199,-2.70229 -9.01766,-7.86316 -10.70042,-10.94218 -1.68306,-3.0787 -2.40283,-6.20866 -2.35998,-9.22635 0.0445,-3.01709 1.68641,-5.00434 1.68641,-5.00434 l 5.85744,3.50406 c 0,0 4.83304,2.64507 13.04433,4.29076 1.89178,0.37914 15.80692,3.2814 21.07686,3.67673 6.00437,0.45043 10.44718,-0.43779 13.54505,-3.86316 z"
             id="path3530"
             sodipodi:nodetypes="ccscsccccssc" /><path
             style="fill:url(#linearGradient3409);fill-opacity:1;fill-rule:nonzero;stroke:#000000;stroke-width:0.265504px;stroke-linecap:butt;stroke-linejoin:miter;stroke-opacity:1"
             d="m 804.15608,414.56902 c 0,0 -5.4298,7.71083 -21.87764,11.5592 -15.61197,3.65318 -22.012,-5.55282 -16.51945,-19.57376 4.01698,-10.25395 8.29566,-15.66577 8.29566,-15.66577 l 1.9119,3.68929 4.08364,4.35245 c 0,0 5.40651,5.6763 17.62383,12.88877 5.24447,3.09606 6.48206,2.74982 6.48206,2.74982 z"
             id="path3532"
             sodipodi:nodetypes="csscccsc" /><path
             style="fill:url(#linearGradient3411);fill-opacity:1;fill-rule:nonzero;stroke:#000000;stroke-width:0.265504px;stroke-linecap:butt;stroke-linejoin:miter;stroke-opacity:1"
             d="m 832.1539,375.49284 c 0,0 0.93062,-13.64173 0.0234,-29.91998 -0.90718,-16.27875 -16.08427,-14.47869 -18.88389,-14.21522 -2.79967,0.26253 -26.96752,3.51192 -35.64784,9.06258 -8.68099,5.55157 -7.68364,9.76638 -7.68364,9.76638 l -0.0378,21.59691 c 0,0 -0.0297,3.77687 4.77887,7.21539 4.80912,3.43878 10.75268,5.55546 10.75268,5.55546 0,0 20.21329,5.86913 32.49663,5.92211 12.28357,0.0525 14.38821,-13.04097 14.20132,-14.98365 z"
             id="path3534" /><path
             style="fill:url(#linearGradient3413);fill-opacity:1;fill-rule:nonzero;stroke:#000000;stroke-width:0.265504px;stroke-linecap:butt;stroke-linejoin:miter;stroke-opacity:1"
             d="m 828.28377,335.23699 -4.29217,-12.78557 c 0,0 -4.20889,-9.69016 -9.0013,-12.41422 -4.79213,-2.72391 -8.72147,-3.98637 -11.41592,-3.64874 -2.69461,0.33769 -14.23144,7.5282 -17.72467,10.17769 -3.493,2.64897 -9.13694,7.72439 -10.86691,10.77677 -1.72982,3.05255 -2.15185,4.85935 -2.15515,7.87715 -0.004,3.01744 1.48551,7.63076 1.48551,7.63076 l 4.2264,-3.02262 c 0,0 7.39307,-3.22613 11.10175,-3.99565 9.47001,-2.0391 31.09166,-9.00999 38.64246,-0.59557 z"
             id="path3536"
             sodipodi:nodetypes="ccssccccccc" /><path
             style="fill:url(#linearGradient3415);fill-opacity:1;fill-rule:nonzero;stroke:#000000;stroke-width:0.265504px;stroke-linecap:butt;stroke-linejoin:miter;stroke-opacity:1"
             d="m 803.5978,306.4088 c 0,0 -4.91823,-7.78756 -21.35971,-11.66533 -15.60523,-3.68036 -21.95269,5.37604 -16.48473,19.40671 3.9989,10.26103 8.07855,15.47368 8.07855,15.47368 l 1.65111,-3.01511 c 0,0 3.87916,-6.27155 14.39439,-12.75771 3.35712,-2.07079 6.66513,-4.36156 11.73925,-6.79405 1.53912,-0.73784 1.98114,-0.64819 1.98114,-0.64819 z"
             id="path3538"
             sodipodi:nodetypes="cssccssc" /></g></g></g></g></svg>
