<svg xmlns="http://www.w3.org/2000/svg" xmlns:xlink="http://www.w3.org/1999/xlink" viewBox="0 0 1123.2 748.8"><defs><style>.cls-1,.cls-16,.cls-24,.cls-25{fill:none;}.cls-2{fill:url(#linear-gradient);}.cls-21,.cls-3{isolation:isolate;}.cls-4{clip-path:url(#clip-path);}.cls-5{fill:url(#linear-gradient-2);}.cls-6{opacity:0.8;}.cls-7{clip-path:url(#clip-path-2);}.cls-14,.cls-8{opacity:0.5;}.cls-9{clip-path:url(#clip-path-4);}.cls-10{fill:url(#linear-gradient-4);}.cls-11{mix-blend-mode:soft-light;}.cls-12{clip-path:url(#clip-path-5);}.cls-13{fill:url(#linear-gradient-5);}.cls-14,.cls-27{fill:#fff;}.cls-15{fill:#f0f6ff;}.cls-16,.cls-24{stroke:#202371;stroke-miterlimit:10;}.cls-16{stroke-width:0.8px;}.cls-17{fill:#4058df;}.cls-18{fill:#e33376;}.cls-19{fill:#605d82;}.cls-20{fill:#202371;}.cls-21{opacity:0.1;}.cls-22{fill:#fbbebe;}.cls-23{fill:#46455b;}.cls-24{stroke-width:1.3px;}.cls-25{stroke:#a8bbf4;stroke-linecap:round;stroke-linejoin:round;stroke-width:1.43px;}.cls-26{fill:#c2d3f9;}.cls-28{fill:#a8bbf4;}</style><linearGradient id="linear-gradient" x1="612.77" y1="541.82" x2="1123.1" y2="541.82" gradientUnits="userSpaceOnUse"><stop offset="0" stop-color="#3859e0"/><stop offset="1" stop-color="#6e91ff"/></linearGradient><clipPath id="clip-path"><rect class="cls-1" x="0.1" width="1123" height="748.8"/></clipPath><linearGradient id="linear-gradient-2" x1="-324.14" y1="374.4" x2="1447.34" y2="374.4" gradientTransform="translate(262.44 -230.64) rotate(30)" gradientUnits="userSpaceOnUse"><stop offset="0" stop-color="#202371"/><stop offset="1" stop-color="#4058df"/></linearGradient><clipPath id="clip-path-2"><rect class="cls-1" x="612.77" y="337.12" width="510.33" height="409.39"/></clipPath><clipPath id="clip-path-4"><path class="cls-2" d="M612.77,667.83a330.29,330.29,0,0,0,9.48,78.68H734.68a222.16,222.16,0,0,1-14.33-78.68c0-123,100.09-223.13,223.13-223.13a223,223,0,0,1,179.62,90.91V390.29a328.79,328.79,0,0,0-179.62-53.17c-182.36,0-330.71,148.36-330.71,330.71"/></clipPath><linearGradient id="linear-gradient-4" x1="481.09" y1="541.82" x2="1254.78" y2="541.82" gradientTransform="translate(1079.9 -459.16) rotate(69.98)" xlink:href="#linear-gradient"/><clipPath id="clip-path-5"><rect class="cls-1" width="1123.2" height="748.8"/></clipPath><linearGradient id="linear-gradient-5" y1="288.28" x2="905.29" y2="288.28" gradientUnits="userSpaceOnUse"><stop offset="0" stop-color="#4058df"/><stop offset="1" stop-color="#202371"/></linearGradient></defs><g class="cls-3"><g id="Landing_Page" data-name="Landing Page"><g id="Main_Background" data-name="Main Background"><g class="cls-4"><rect class="cls-5" x="-111.87" y="-230.59" width="1346.95" height="1209.98" transform="translate(-111.96 330.96) rotate(-30)"/><g class="cls-6"><g class="cls-7"><g class="cls-8"><g class="cls-7"><path class="cls-2" d="M612.77,667.83a330.29,330.29,0,0,0,9.48,78.68H734.68a222.16,222.16,0,0,1-14.33-78.68c0-123,100.09-223.13,223.13-223.13a223,223,0,0,1,179.62,90.91V390.29a328.79,328.79,0,0,0-179.62-53.17c-182.36,0-330.71,148.36-330.71,330.71"/><g class="cls-9"><rect class="cls-10" x="588.26" y="232" width="559.35" height="619.64" transform="translate(61.74 1171.83) rotate(-69.98)"/></g></g></g></g></g><g class="cls-11"><g class="cls-12"><path class="cls-13" d="M0,576.56,1.94,575C143.37,462.15,125,282.87,282.9,193.43c127.58-72.27,267.21,32,454.22-61.32C818.81,91.36,868.47,44.33,905.29,0H0Z"/></g></g></g></g><g id="Page_Background" data-name="Page Background"><path class="cls-14" d="M1011.2,667.9H112a20.41,20.41,0,0,1-20.4-20.4V101.3A20.41,20.41,0,0,1,112,80.9h899.2a20.41,20.41,0,0,1,20.4,20.4V647.5a20.41,20.41,0,0,1-20.4,20.4"/><rect class="cls-1" width="1123.2" height="748.8"/></g><g id="_404_Design" data-name="404 Design"><path class="cls-15" d="M512.93,237.24H928.87c4.44,0,8,6.2,8,13.85v255c0,7.64-3.61,13.84-8,13.84H512.93c-4.44,0-8-6.2-8-13.84v-255C504.88,243.44,508.49,237.24,512.93,237.24Z"/><path class="cls-16" d="M536.53,214.21H949.09c5.37,0,9.73,7.5,9.73,16.76V480.12c0,9.25-4.36,16.75-9.73,16.75H536.53c-5.38,0-9.74-7.5-9.74-16.75V231C526.79,221.71,531.15,214.21,536.53,214.21Z"/><g id="_404" data-name="404"><path class="cls-17" d="M609.09,262a53.63,53.63,0,0,0,9.2.48,83.62,83.62,0,0,0,8.89-.8,16.9,16.9,0,0,1,6.5,0c2,.43,4.18.95,6.51,1.59a20.92,20.92,0,0,1,1.27,7.14q0,3.65-.32,7.46c-.43,2.54-.74,5-.95,7.45s-.53,4.92-1,7.46a22.27,22.27,0,0,0-.32,3.81v3.49a69.17,69.17,0,0,1-.32,11.42q-.65,5.72-1,11.11v7c0,3.81-.06,7.67-.16,11.59a88.45,88.45,0,0,0,.48,11.9q.63,7,.63,13.64v22.85a14.12,14.12,0,0,0,.32,2.86,7.22,7.22,0,0,0,5.71,5.71l1.9.63a4.29,4.29,0,0,1,3.18,3.81,26.35,26.35,0,0,0,.31,4,12.52,12.52,0,0,1,0,4A43.73,43.73,0,0,0,650,421a10.19,10.19,0,0,1-3.8,10.15,10.7,10.7,0,0,0-3.81,5.08,27.36,27.36,0,0,0-1.27,6q-.64,6-.95,11.9t-.32,12.22c-.21,2.11-.48,4.23-.79,6.34A25.3,25.3,0,0,1,637,479.4a6.29,6.29,0,0,0-1.9.31,3.8,3.8,0,0,1-2.22,0c-2.75,0-5.51.11-8.25.32s-5.51.53-8.25,1a7.57,7.57,0,0,1-5.08-1.27,6.67,6.67,0,0,1-3.17-4.12,48,48,0,0,1-1.91-10.79,38.81,38.81,0,0,1-.32-4.76v-8.25a20.79,20.79,0,0,0-.31-4.76,50.56,50.56,0,0,0-1.91-7.62q-1.59-7.92-9.52-7.93a54.52,54.52,0,0,0-7.14-.16q-3.64.17-7.14.16H567.83c-3.6.21-7,.27-10.31.16s-6.72-.05-10.31.16a26.49,26.49,0,0,0-4.13.31c-1.27.22-2.65.43-4.12.64a9.39,9.39,0,0,1-3.18.32c-2.11,0-3.17-1-3.17-2.86q0-6-.48-11.74a63.32,63.32,0,0,1,.16-11.74,11.61,11.61,0,0,1,1.43-4.45c.74-1.27,1.43-2.53,2.06-3.8a57.91,57.91,0,0,1,3.65-7.78c1.38-2.43,2.8-4.92,4.29-7.46l7.93-16.18,2.54-5.08,21.58-38.4,7-12.37A169.67,169.67,0,0,0,591.32,295q2.53-5.07,4.92-10.15t4.91-10.16a26.19,26.19,0,0,1,2.23-4.12,14.42,14.42,0,0,0,1.9-4.44A43.83,43.83,0,0,1,609.09,262Zm-40.3,117.41q3.8-3.48,3.49-7.61a15.92,15.92,0,0,0-2.86,3.81A21.43,21.43,0,0,0,568.79,379.43Zm38.39-14.27q.32-3.81.32-7.62v-7.62q.32-4.11-2.22-4.76-2.55,0-3.81,2.86c-1.06,1.69-2,3.39-2.85,5.08s-1.8,3.38-2.86,5.07q-3.5,6.36-6.51,12.86a110.65,110.65,0,0,1-6.82,12.53,27,27,0,0,0-3.49,8.89q-.65,4.76,4.13,5.71a30.91,30.91,0,0,0,7,.47,50.39,50.39,0,0,0,7-.79,13.25,13.25,0,0,0,3.81-1.27,4.83,4.83,0,0,0,2.54-2.86,35.69,35.69,0,0,0,3.49-14.91A50.52,50.52,0,0,0,607,372q-.16-3.33-.16-6.82Zm-26.65-30.47a6.93,6.93,0,0,0,1.27-1.59L592,316a.53.53,0,0,0,.16-.64c-.11-.21-.05-.52.16-.95a20.61,20.61,0,0,0-3.49,2.22,12.71,12.71,0,0,0-1.59,2.22l-7,14.92v.32A.92.92,0,0,1,580.53,334.69Zm5.39,83.46a28.64,28.64,0,0,0,6.35,2.54,22.85,22.85,0,0,0,5.71.95c1.27,0,1.9-.84,1.9-2.54a7,7,0,0,0-3.8-1.58c-1.7,0-3.33.05-4.92.15S587.83,417.94,585.92,418.15Zm32.37,39c.64.43,1.16.43,1.59,0a1.82,1.82,0,0,0,.63-1.27v-8.25a.84.84,0,0,0-1-1,2.62,2.62,0,0,0-1.59,1,39,39,0,0,0-.31,4.76A19.25,19.25,0,0,0,618.29,457.18ZM630,310.26q-2.22,3.5.32,10.47c0-1.48,0-2.86.16-4.13s.16-2.43.16-3.49A28.1,28.1,0,0,0,630,310.26Z"/><path class="cls-18" d="M668.43,375.31a57.28,57.28,0,0,1-.32-10.31q.32-4.92.64-10,.63-6.66,1.74-13.33t2.06-13.33a32.91,32.91,0,0,1,1.91-8.56,144,144,0,0,1,5.23-14.92,80.82,80.82,0,0,1,7.46-14q1.9-2.86,3.49-5.71a24.33,24.33,0,0,1,4.13-5.4q6-6,13.32-12.37l5.08-2.54a51.81,51.81,0,0,1,9.68-2.23l10-1.26a19.11,19.11,0,0,1,7.61,1.26q4.44,1.61,8.57,3.34a37,37,0,0,1,7.93,4.6q5.09,3.81,9.68,7.93a32.61,32.61,0,0,1,7.46,9.84,28.36,28.36,0,0,0,2.7,4.44,29.64,29.64,0,0,1,2.7,4.44,48.59,48.59,0,0,1,3.8,10.32q1.28,5.24,2.54,10.63,2.53,12.38,3.81,24.43,1,9.21,1.75,18.25t.79,18.25a39.47,39.47,0,0,1-1.27,10.15l-3.17,19a161.7,161.7,0,0,1-7.62,27.93c-.21.85-.43,1.59-.63,2.22a17.71,17.71,0,0,1-1,2.22c-.84,2.75-1.74,5.51-2.69,8.25a74.75,74.75,0,0,1-3.65,8.57,15.59,15.59,0,0,0-1.11,1.9A6.05,6.05,0,0,1,770,461l-10.16,10.79a11.18,11.18,0,0,1-2.22,1.9,17,17,0,0,1-7.62,4.61,71.62,71.62,0,0,1-8.56,1.74l-11.11,1a29,29,0,0,1-13.33-1.9,46,46,0,0,1-16.18-9.52l-6.67-5.71a35.56,35.56,0,0,1-7.3-7.62,60,60,0,0,1-5.07-8.88,115.9,115.9,0,0,1-5.72-16q-2.22-8.1-4.12-16.66a146.45,146.45,0,0,1-2.22-16.34c-.43-5.4-.85-10.84-1.27-16.35a11.1,11.1,0,0,1-.16-3.33C668.37,377.48,668.43,376.37,668.43,375.31ZM691,309c-1.06,3-2.06,5.92-3,8.88s-2,5.93-3,8.89a8.77,8.77,0,0,0-.64,3.33,17,17,0,0,1-.31,3.33v.79c0,.32.31.59.95.8,1.06-3.18,2-6.29,2.86-9.36s1.79-6.08,2.85-9a26.64,26.64,0,0,0,1-3.65c.21-1.16.42-2.38.64-3.65a4.46,4.46,0,0,0-.32-1.9Zm67,42.52a61.56,61.56,0,0,0-1-10.79q-.94-5.39-1.9-10.79a86.81,86.81,0,0,0-3.17-10.47A68.46,68.46,0,0,0,746.81,309q-3.81-6.35-9.2-7.3a30.48,30.48,0,0,0-6.19,0,9.13,9.13,0,0,0-5.55,2.85c-.43.43-.75.64-1,.64a32.22,32.22,0,0,0-13,18.72l-2.85,9.84q-.33,1.27-.48,2.22a11.08,11.08,0,0,0-.16,1.9,4.37,4.37,0,0,1-.95,3.81,9.42,9.42,0,0,0-2.06,4.13c-.32,1.48-.59,3.07-.8,4.76q-.32,7.31-.79,14.28a91.07,91.07,0,0,0,.16,14.28,64.58,64.58,0,0,1,.16,7.77,41.88,41.88,0,0,0,.47,8.09,75.13,75.13,0,0,0,4.13,19.68,12.06,12.06,0,0,1,.79,2.86,7.74,7.74,0,0,0,.8,2.53,68.41,68.41,0,0,0,2.38,8.1,36.78,36.78,0,0,0,3.65,7.45q3.17,5.08,10.79,7a10.17,10.17,0,0,0,6.66-.31,33,33,0,0,0,9.36-6.51,24.35,24.35,0,0,0,5.87-9.68c.42-1.27.85-2.54,1.27-3.8s.84-2.43,1.27-3.49c.42-1.7.79-3.23,1.11-4.61a20.25,20.25,0,0,0,.48-4.6l1.27-7.61c.42-1.91.84-3.86,1.27-5.87s.73-4,.95-5.88q.63-6.33,1.27-13a70.56,70.56,0,0,0,0-13.32,9.47,9.47,0,0,1-.32-2.38v-2.07c0-1.27,0-2.59.16-4S757.92,352.78,757.92,351.51ZM694.6,401a1.29,1.29,0,0,1-1,.31l1.91,10.48a11,11,0,0,1,.47,1.11,3.16,3.16,0,0,0,.8,1.11q.95,1.28,2.22,0Zm69.65,48.46a17.12,17.12,0,0,0-4.76,4.76c-.42.43-.84.85-1.27,1.27s-.42,1.06,0,1.9c.85,1.07,2,.53,3.49-1.58a16.4,16.4,0,0,1,2.7-2.7,4.34,4.34,0,0,0,1.43-3.65Zm0-161.11a11.51,11.51,0,0,0-1.42-3,12.85,12.85,0,0,0-2.07-1.42,33.3,33.3,0,0,0-2.85-1.91,6.71,6.71,0,0,0-2.54-.31,9.47,9.47,0,0,0,3.17,3.8,45.06,45.06,0,0,1,3.81,2.86Zm14.6,58.39c1.27,0,1.91-.74,1.91-2.22-.22-1.69-.38-3.38-.48-5.08a13.38,13.38,0,0,0-1.43-5.08c-.85.43-1.27,1-1.27,1.59v1.9A18.83,18.83,0,0,0,778.86,346.75Z"/><path class="cls-17" d="M890.25,262a53.57,53.57,0,0,0,9.2.48,83.2,83.2,0,0,0,8.88-.8,17,17,0,0,1,6.51,0c2,.43,4.17.95,6.5,1.59a20.68,20.68,0,0,1,1.27,7.14c0,2.43-.11,4.92-.31,7.46-.43,2.54-.75,5-1,7.45s-.53,4.92-1,7.46a23.31,23.31,0,0,0-.31,3.81v3.49a70.28,70.28,0,0,1-.32,11.42q-.64,5.72-1,11.11v7c0,3.81-.06,7.67-.16,11.59a90.1,90.1,0,0,0,.47,11.9q.63,7,.64,13.64v22.85a14.12,14.12,0,0,0,.32,2.86,7.21,7.21,0,0,0,5.71,5.71l1.9.63a4.28,4.28,0,0,1,3.17,3.81,26.4,26.4,0,0,0,.32,4,12.52,12.52,0,0,1,0,4,42.72,42.72,0,0,0,0,10.48,10.17,10.17,0,0,1-3.81,10.15,10.74,10.74,0,0,0-3.8,5.08,26.8,26.8,0,0,0-1.27,6q-.64,6-1,11.9T921,466.39c-.22,2.11-.48,4.23-.8,6.34a24.89,24.89,0,0,1-2.06,6.67,6.29,6.29,0,0,0-1.9.31,3.8,3.8,0,0,1-2.22,0q-4.14,0-8.26.32t-8.25,1a7.55,7.55,0,0,1-5.07-1.27,6.68,6.68,0,0,1-3.18-4.12,48,48,0,0,1-1.9-10.79,38.81,38.81,0,0,1-.32-4.76v-8.25a20.56,20.56,0,0,0-.32-4.76,50.52,50.52,0,0,0-1.9-7.62q-1.59-7.92-9.52-7.93a54.52,54.52,0,0,0-7.14-.16q-3.65.17-7.14.16H849c-3.6.21-7,.27-10.31.16s-6.72-.05-10.32.16a26.45,26.45,0,0,0-4.12.31c-1.27.22-2.65.43-4.13.64a9.27,9.27,0,0,1-3.17.32c-2.12,0-3.17-1-3.17-2.86q0-6-.48-11.74a61.64,61.64,0,0,1,.16-11.74,11.44,11.44,0,0,1,1.43-4.45c.74-1.27,1.43-2.53,2.06-3.8a57.91,57.91,0,0,1,3.65-7.78q2.05-3.65,4.28-7.46l7.94-16.18,2.54-5.08,21.57-38.4,7-12.37A167.33,167.33,0,0,0,872.47,295q2.55-5.07,4.92-10.15t4.92-10.16a27,27,0,0,1,2.22-4.12,14.2,14.2,0,0,0,1.91-4.44A43.83,43.83,0,0,1,890.25,262ZM849.94,379.43q3.81-3.48,3.49-7.61a16.06,16.06,0,0,0-2.85,3.81A21.14,21.14,0,0,0,849.94,379.43Zm38.4-14.27q.31-3.81.32-7.62v-7.62q.32-4.11-2.22-4.76-2.55,0-3.81,2.86c-1.06,1.69-2,3.39-2.86,5.08s-1.8,3.38-2.85,5.07q-3.49,6.36-6.51,12.86a110.65,110.65,0,0,1-6.82,12.53,26.58,26.58,0,0,0-3.49,8.89c-.43,3.17.95,5.07,4.12,5.71a31,31,0,0,0,7,.47,50.39,50.39,0,0,0,7-.79,13.19,13.19,0,0,0,3.8-1.27,4.8,4.8,0,0,0,2.54-2.86A35.53,35.53,0,0,0,888,378.8a48.94,48.94,0,0,0,.16-6.82q-.16-3.33-.16-6.82Zm-26.66-30.47A6.42,6.42,0,0,0,863,333.1L873.11,316a.53.53,0,0,0,.16-.64c-.11-.21-.06-.52.16-.95a20.17,20.17,0,0,0-3.49,2.22,12.2,12.2,0,0,0-1.59,2.22l-7,14.92v.32A.9.9,0,0,1,861.68,334.69Zm5.4,83.46a28.45,28.45,0,0,0,6.35,2.54,22.85,22.85,0,0,0,5.71.95c1.27,0,1.9-.84,1.9-2.54a7,7,0,0,0-3.81-1.58c-1.69,0-3.33.05-4.91.15S869,417.94,867.08,418.15Zm32.37,39c.63.43,1.16.43,1.58,0a1.79,1.79,0,0,0,.64-1.27v-8.25a.84.84,0,0,0-.95-1,2.62,2.62,0,0,0-1.59,1,39.07,39.07,0,0,0-.32,4.76A19.29,19.29,0,0,0,899.45,457.18Zm11.74-146.92q-2.22,3.5.32,10.47c0-1.48,0-2.86.16-4.13s.15-2.43.15-3.49A26.47,26.47,0,0,0,911.19,310.26Z"/></g><g id="Men"><g id="Men-2" data-name="Men"><path class="cls-19" d="M734.42,641.06h-5.36a4.43,4.43,0,0,1-4.43-4.44V621.47h9.79l3.93,14.43a4.06,4.06,0,0,1-2.86,5,3.89,3.89,0,0,1-1.07.15Z"/><path class="cls-20" d="M709.58,493.89s-10.91,37.93-11.38,54.53-2.37,43.15-1,49.79,5.69,19.91,5.69,19.91,9-10.9,12.33-4.74c0,0-.48-12.8-2.85-16.6,0,0,1-19.91,1-27s11.86-39.83,12.8-40.31,3.8,9,1.43,29.88-4.27,57.38-4.27,61.17,5.69,11.38,9.48,9S739,606.74,739,606.74s3.32-42.67,5.21-47.41,11.86-59.28,4.27-63.54S709.58,493.89,709.58,493.89Z"/><path class="cls-19" d="M717.64,617.17c-.48,1.9-2.37,10.91-2.37,13.75s1.89,8.06-6.17,10c-7.85,1.85-6.7-3-8-5.94,0-.07-.07-.15-.11-.22-1.42-2.85,1.9-17.55,2.37-17.55.28,0,2.53-3.76,4.33-6.87a5,5,0,0,1,6.87-1.88,4.4,4.4,0,0,1,.95.7,7.69,7.69,0,0,1,2.36,5.59A9.68,9.68,0,0,1,717.64,617.17Z"/><path class="cls-21" d="M717.64,617.17c-.48,1.9-2.37,10.91-2.37,13.75s1.89,8.06-6.17,10c-7.85,1.85-6.7-3-8-5.94,1.36-3.53,4.66-11.13,7-17.77,2.06-5.86,7.15-3.95,9.76-2.46A9.68,9.68,0,0,1,717.64,617.17Z"/><circle class="cls-22" cx="731.39" cy="410.44" r="9.96"/><path class="cls-22" d="M723.33,412.34,721.91,428,739,430.83s-1.9-13.75-.48-16.6S723.33,412.34,723.33,412.34Z"/><path class="cls-17" d="M736.61,424.66s-14.23-1.42-15.18,0a8.23,8.23,0,0,0-.95,3.8s-5.69,2.37-6.63,1.42-1.9-3.79-4.75-2.85-8.53,18-8.53,18,1.42-5.21,3.79,14.7,1.9,32.24,2.37,33.67-2.37,9.95,14.7,9.95,29.4-.94,29.4-4.26-2.84-17.55,0-28,7.11-24.66,7.11-24.66L752.25,428s-5.69-1.42-7.11.95-5.22,1.9-5.22,1.9S739.45,425.14,736.61,424.66Z"/><path class="cls-17" d="M709.58,428l-11.86-5.21s-22.28-17.07-21.33-32.25c0,0-7.59-7.11-8.06.48s1.89,24.65,7.58,30.34,25.13,23.71,28,24.19S709.58,428,709.58,428Z"/><path class="cls-22" d="M669.27,392s-9-24.66-.94-23.71,6.16,11.38,6.16,11.38V392Z"/><path class="cls-17" d="M750.36,428.93l11.85-5.21s22.29-17.07,21.34-32.25c0,0,7.58-7.11,8.06.48s-1.9,24.65-7.59,30.34-25.13,23.71-28,24.18S750.36,428.93,750.36,428.93Z"/><path class="cls-22" d="M790.66,392.89s9-24.65,1-23.7-6.17,11.38-6.17,11.38v12.32Z"/><path class="cls-23" d="M739,398.58l1.42-.94s-9-5.22-12.8-2.37-4.75,5.21-5.69,6.16-3.32,6.16-1.9,8.06,1,2.29,1.9,4-1.66,8.55,5.57,10.58,12.92-6.51,13.87-8.41S745.61,401,739,398.58Z"/></g><line id="Base" class="cls-24" x1="504.88" y1="641.06" x2="958.82" y2="641.06"/></g><g id="Flower"><path class="cls-20" d="M915.27,641.68l-.24-.48c-.07-.14-7-14.74-3.16-29.14s17.29-23.48,17.42-23.57l.45-.3.23.48c.07.14,7,14.75,3.16,29.14s-17.29,23.49-17.42,23.58Zm14.09-52.1c-2.34,1.7-13.19,10.15-16.59,22.72s1.7,25.34,2.87,28c2.34-1.71,13.19-10.16,16.59-22.73h0C935.64,605,930.53,592.23,929.36,589.58Z"/><path class="cls-18" d="M897.26,617.69c3.89,14.39,17.23,23.31,17.23,23.31s7-14.42,3.13-28.82-17.23-23.31-17.23-23.31S893.36,603.3,897.26,617.69Z"/><path class="cls-20" d="M915.48,641.48l-.54,0c-.16,0-16.31-1-27-11.41s-12.12-26.52-12.13-26.68l0-.53.53,0c.16,0,16.32,1,27,11.4s12.12,26.53,12.13,26.69ZM876.8,603.83c.35,2.88,2.46,16.46,11.79,25.55s23,10.83,25.86,11.1c-.35-2.88-2.46-16.47-11.8-25.55h0C893.32,605.84,879.68,604.1,876.8,603.83Z"/><path class="cls-17" d="M927,614.6C916.27,625,915,641,915,641s16-.88,26.7-11.28,12-26.39,12-26.39S937.64,604.19,927,614.6Z"/><circle class="cls-18" cx="914.75" cy="579.53" r="6.97"/></g><g id="Elements"><path class="cls-25" d="M580.36,455.94a2.12,2.12,0,1,1-2.12-2.13A2.12,2.12,0,0,1,580.36,455.94Z"/><path class="cls-25" d="M930.75,348.87a2.12,2.12,0,1,1-2.12-2.12A2.12,2.12,0,0,1,930.75,348.87Z"/><path class="cls-25" d="M824.65,317.26a2.12,2.12,0,1,1-2.12-2.12A2.12,2.12,0,0,1,824.65,317.26Z"/><path class="cls-25" d="M667.76,271.39a2.12,2.12,0,1,1-2.12-2.12A2.12,2.12,0,0,1,667.76,271.39Z"/><line class="cls-25" x1="672.6" y1="473.61" x2="672.6" y2="480.18"/><line class="cls-25" x1="675.88" y1="476.89" x2="669.32" y2="476.89"/><line class="cls-25" x1="779.92" y1="246.68" x2="779.92" y2="253.25"/><line class="cls-25" x1="783.21" y1="249.97" x2="776.64" y2="249.97"/><line class="cls-25" x1="537.96" y1="313.97" x2="537.96" y2="320.54"/><line class="cls-25" x1="541.24" y1="317.26" x2="534.68" y2="317.26"/><line class="cls-25" x1="865.64" y1="463.21" x2="865.64" y2="469.77"/><line class="cls-25" x1="868.93" y1="466.49" x2="862.36" y2="466.49"/></g><g id="Icons"><rect class="cls-26" x="802.7" y="458.03" width="23.71" height="23.71" rx="3.07" transform="translate(1629.11 939.77) rotate(180)"/><path class="cls-27" d="M822.07,471.68a7.78,7.78,0,0,0,0-3.59l-1.63.23a5.94,5.94,0,0,0-.62-1.49l1.32-1a7.71,7.71,0,0,0-2.54-2.54l-1,1.32a5.94,5.94,0,0,0-1.49-.62l.23-1.63a7.5,7.5,0,0,0-1.79-.21,7.64,7.64,0,0,0-1.8.21L813,464a5.85,5.85,0,0,0-1.5.62l-1-1.32a7.8,7.8,0,0,0-2.54,2.54l1.32,1a5.94,5.94,0,0,0-.62,1.49l-1.63-.23a7.78,7.78,0,0,0,0,3.59l1.63-.24a5.85,5.85,0,0,0,.62,1.5l-1.32,1a7.9,7.9,0,0,0,2.54,2.54l1-1.32a5.85,5.85,0,0,0,1.5.62l-.24,1.63a7.64,7.64,0,0,0,1.8.21,7.5,7.5,0,0,0,1.79-.21l-.23-1.63a5.94,5.94,0,0,0,1.49-.62l1,1.32a7.8,7.8,0,0,0,2.54-2.54l-1.32-1a5.85,5.85,0,0,0,.62-1.5Zm-7.51,1.93a3.73,3.73,0,1,1,3.72-3.73A3.73,3.73,0,0,1,814.56,473.61Z"/><rect class="cls-26" x="538.77" y="248.87" width="25.04" height="25.04" rx="3.25"/><polygon class="cls-27" points="557.6 255.08 547.17 257.71 549.62 260.15 544.99 264.78 547.9 267.69 552.53 263.06 554.97 265.51 557.6 255.08"/><rect class="cls-28" x="814.56" y="244.76" width="39.5" height="39.5" rx="5.12" transform="translate(1668.61 529.01) rotate(180)"/><path class="cls-27" d="M847,275.6a1.5,1.5,0,0,1-.47.08H822.05a1.44,1.44,0,0,1-1.25-2.16l12.26-21.23a1.43,1.43,0,0,1,2.48,0l12.27,21.22a1.44,1.44,0,0,1-.77,2.08Zm-24.32-1.74h23.17L834.3,253.8Z"/><path class="cls-27" d="M834.31,269.64h0a.86.86,0,0,1-.87-.83l-.5-8.35A1.37,1.37,0,0,1,834.3,259h0a1.36,1.36,0,0,1,1.36,1.43l-.49,8.35A.86.86,0,0,1,834.31,269.64Z"/><path class="cls-27" d="M835.19,271.66a.89.89,0,0,1-1.77,0,.89.89,0,1,1,1.77,0Z"/></g></g></g></g></svg>