<svg id="PokeballAmhedriel" xmlns="http://www.w3.org/2000/svg" viewBox="0 0 400.6 399"><defs><style>.cls-1{fill:#fff;}.cls-2{fill:#e9e600;}.cls-3{fill:#ef4036;}.cls-4{fill:#58585a;}.cls-5{fill:#363638;}.cls-6{fill:#a19e9e;}</style></defs><path class="cls-1" d="M646.35,417.26c-8.43-2.67-13.08-4.14-20-6s-12.69-3.24-16.59-4.16a61.22,61.22,0,0,0-6.72-1.15c-1.26-.16-2.44-.33-3.54-.55l-.65.74c-1,1.12-2.22,2.5-3.46,4.08l-1.65,2.12a63.33,63.33,0,0,1-5.19,6.24,51.09,51.09,0,0,1-7,5.8,67,67,0,0,1-10.81,6.6,72.7,72.7,0,0,1-12.33,4.56,65.86,65.86,0,0,1-17.93,2.5,60.26,60.26,0,0,1-6.47-.34A63.27,63.27,0,0,1,516.39,433a72.25,72.25,0,0,1-13.9-7.39A70.17,70.17,0,0,1,488.58,413a69.21,69.21,0,0,1-7.85-11.39c-1.47-2.72-2.45-4.67-3.11-6.23-9.35.3-19.76,1.15-26.7,1.72-7.11.59-14.27,1.34-21.29,2.23-6.4.82-13.33,1.85-20.06,3s-13.21,2.24-21.47,4.13c-3.15.72-4.32,1-15.45,4.08l-6,1.64c.13.63.28,1.33.45,2.09.58,2.6,1.35,5.51,2.22,8.42,1.65,5.52,3.33,9.87,4.18,12,1.91,4.73,3.64,8.21,4.68,10.28,1.71,3.44,3.83,7.3,6,10.89,1.63,2.75,2.88,4.68,5.15,8.19,2,3.12,3.13,4.84,4.77,7.13,1.3,1.79,2.49,3.32,4.87,6.35,2.62,3.36,3.94,5,5.37,6.72,3,3.49,5.45,6,6.79,7.34,3.45,3.48,6.17,5.87,8.57,8s5.61,4.93,9.75,8.1a157.24,157.24,0,0,0,13.86,9.41A197.43,197.43,0,0,0,462,527.34c4.5,2.14,9,4.08,13.49,5.78a173.88,173.88,0,0,0,18.59,6,152.73,152.73,0,0,0,18.53,3.58c4.67.58,8.48.79,11,.94,4.11.24,8.68.35,13.23.32a180.29,180.29,0,0,0,21.3-1.11,112.18,112.18,0,0,0,17.9-3.19c3.42-.94,6.29-1.93,12-3.91l.3.43-.17-.47c4.09-1.42,7.62-2.64,12.19-4.51,4.41-1.79,8.85-3.8,12.85-5.8,4.63-2.32,9.26-4.91,13.75-7.69A156.45,156.45,0,0,0,641.11,508c1.21-.94,3.75-3,8.81-7.2,3.07-2.53,5.22-4.32,7.75-6.52,1.73-1.5,3-2.63,4.29-3.79,2.09-1.86,4.2-3.8,6.32-5.75a194.66,194.66,0,0,0,19.43-52.3c-6.4-2.85-13.41-5.67-20.85-8.38C660.78,421.83,656,420.3,646.35,417.26Z" transform="translate(-294.5 -191.68)"/><path class="cls-1" d="M542.71,336.63A31.36,31.36,0,1,0,574.06,368,31.4,31.4,0,0,0,542.71,336.63Z" transform="translate(-294.5 -191.68)"/><path class="cls-2" d="M324.16,421.71l1.34-.47-.79.26Z" transform="translate(-294.5 -191.68)"/><path class="cls-3" d="M309.2,381.73c7.16-2.54,12.14-4.57,16.53-6.35,1.3-.53,2.54-1,3.76-1.52,10.11-4,17.76-6.41,28.34-9.7,11.51-3.58,23.05-6.74,34.3-9.38,6-1.41,16-3.77,29.17-5.94C432.8,347,441.68,346,447,345.48c8.56-.89,19-1.36,30.73-1.84.54-1.43.89-2.42,1.15-3.17a23.89,23.89,0,0,1,2-4.58c1.59-3,3-5.14,3.43-5.73A60,60,0,0,1,495.73,318a70.58,70.58,0,0,1,12.48-9,64.9,64.9,0,0,1,13.32-5.64,67.21,67.21,0,0,1,16-2.53,65.36,65.36,0,0,1,16.14.55,60.63,60.63,0,0,1,19.16,7,72.76,72.76,0,0,1,16.66,12.25,69.81,69.81,0,0,1,11,14.25,67.34,67.34,0,0,1,4.56,9.33,58.93,58.93,0,0,1,3.12,10.58c2.21.31,4.83.85,8.19,1.56,4.51.95,7.79,1.94,11.94,3.19l.25.07c4.92,1.49,8.71,2.84,12.36,4.15,1.86.66,5.73,2,10.4,3.9,3.41,1.35,5,2.08,7.49,3.18,1.72.76,3.84,1.71,7.26,3.19,4,1.71,6.5,2.75,8.74,3.66,2.75,1.13,5.13,2.11,9.39,4,2.91,1.28,5.65,2.57,7.76,3.57-3.18-105.6-90.39-190.52-197.15-190.52-45.35,0-83.78,16-114.34,40.23,21.84-10.75,45.14-9,56,5.58,12.9,17.35,3.32,46.32-21.4,64.7S359.89,324.39,347,307c-7.36-9.9-7.4-23.57-1.5-36.9-28.43,36-44.84,79-47.57,115.62,1.9-.66,4.29-1.52,6.79-2.42Z" transform="translate(-294.5 -191.68)"/><path class="cls-4" d="M691.24,388.16c-2.15-1-5.09-2.41-8.21-3.79-4.23-1.86-6.59-2.83-9.32-3.95-2.25-.92-4.79-2-8.79-3.69-3.44-1.48-5.57-2.43-7.29-3.21-2.43-1.08-4-1.8-7.37-3.13-4.63-1.83-8.47-3.2-10.31-3.86-3.78-1.35-7.36-2.63-12.22-4.09l-.24-.08c-4.09-1.23-7.31-2.2-11.7-3.13-3.62-.76-6.36-1.33-8.59-1.61a1.37,1.37,0,0,1-.72-.3l-.79.15-.27-1.48a56.28,56.28,0,0,0-3.11-10.74,65.09,65.09,0,0,0-4.35-8.9,67.11,67.11,0,0,0-10.55-13.64,69.26,69.26,0,0,0-16-11.74,57.25,57.25,0,0,0-18.25-6.73,62.16,62.16,0,0,0-15.45-.51,64.71,64.71,0,0,0-15.37,2.42,62.19,62.19,0,0,0-12.71,5.38,68.21,68.21,0,0,0-12,8.69,56.87,56.87,0,0,0-10.89,11.62c-.38.56-1.74,2.62-3.27,5.47a21.56,21.56,0,0,0-1.84,4.16c-.29.82-.67,1.91-1.3,3.56l-.52,1.4-.57-.21a1.52,1.52,0,0,1-.95.4c-11.9.48-22.46.95-31.06,1.84-5.27.55-14.09,1.47-25.5,3.34-13.09,2.15-22.65,4.41-29,5.9-11.18,2.63-22.65,5.77-34.09,9.32-10.52,3.27-18.12,5.63-28.12,9.62l-3.74,1.51c-3.63,1.48-7.67,3.12-13,5.08l.78-.27a27.42,27.42,0,0,0,3.77,14.7c2.36,4.24,4.26,6,7.54,9.58A40.37,40.37,0,0,0,339.84,415l2.56.78c2.24-.68,3.62-1.06,11.49-3.2l18-4.89c11.19-3.06,12.36-3.38,15.57-4.11,8.34-1.91,14.78-3,21.59-4.16s13.8-2.19,20.23-3c7.07-.9,14.27-1.65,21.42-2.24s17.89-1.47,27.48-1.75a1.48,1.48,0,0,1,1.54,1.45c0,.06,0,.11,0,.17l.52-.21a65.34,65.34,0,0,0,3.17,6.41,66.72,66.72,0,0,0,7.5,10.89,67.45,67.45,0,0,0,13.32,12.08,69.58,69.58,0,0,0,13.32,7.08,57.89,57.89,0,0,0,30.13,4.38,63.54,63.54,0,0,0,10-2,71.11,71.11,0,0,0,11.81-4.35A66,66,0,0,0,579.81,422a48.51,48.51,0,0,0,6.64-5.49,60.43,60.43,0,0,0,4.95-6l1.66-2.13c1.29-1.65,2.55-3.07,3.57-4.22.65-.73,1.21-1.37,1.6-1.86l0-.22,1.47.32c1.09.24,2.3.4,3.71.58a66.37,66.37,0,0,1,7,1.21c3.94.93,9.86,2.33,16.71,4.19s11.61,3.36,20.09,6c9.65,3.06,14.49,4.59,20.62,6.83,7.28,2.65,14.15,5.41,20.46,8.19a195.93,195.93,0,0,0,3.76-38.24c0-.88,0-1.76,0-2.63Zm-148.54,27a47.5,47.5,0,1,1,47.5-47.5A47.55,47.55,0,0,1,542.7,415.14Z" transform="translate(-294.5 -191.68)"/><path class="cls-1" d="M542.7,323.15a44.5,44.5,0,1,0,44.5,44.49A44.54,44.54,0,0,0,542.7,323.15Zm0,78.19A33.36,33.36,0,1,1,576.06,368,33.4,33.4,0,0,1,542.71,401.34Z" transform="translate(-294.5 -191.68)"/><path class="cls-5" d="M695.06,388a1.42,1.42,0,0,0,0-.71C693,279.05,604,191.68,494.85,191.68a184.27,184.27,0,0,0-83.93,19.73c-23.23,11.74-44.17,28.38-62.22,49.48C317.79,297,297.33,345.26,294.77,387.7c0,.06,0,.12,0,.17-.06,1.09-.12,2.17-.16,3.25a156.35,156.35,0,0,0,4.31,41.55,1.38,1.38,0,0,0,.1.4c.09.38.16.76.26,1.14,9.58,38.56,33.71,77.17,66.21,105.91,26.08,23.07,69.69,50.56,129.37,50.56,96.6,0,177.44-68.5,196.16-159.29l.29-.65-.15-.06a198.64,198.64,0,0,0,4-39.5C695.1,390.1,695.08,389,695.06,388Zm-397.14-2.2c2.73-36.59,19.14-79.64,47.57-115.62-5.9,13.33-5.86,27,1.5,36.9,12.9,17.35,43.4,16.52,68.12-1.85s34.3-47.35,21.4-64.7c-10.86-14.6-34.16-16.33-56-5.58,30.56-24.23,69-40.23,114.34-40.23,106.76,0,194,84.92,197.15,190.52-2.11-1-4.85-2.29-7.76-3.57-4.26-1.88-6.64-2.86-9.39-4-2.24-.91-4.77-1.95-8.74-3.66-3.42-1.48-5.54-2.43-7.26-3.19-2.46-1.1-4.08-1.83-7.49-3.18-4.67-1.86-8.54-3.24-10.4-3.9-3.65-1.31-7.44-2.66-12.36-4.15l-.25-.07c-4.15-1.25-7.43-2.24-11.94-3.19-3.36-.71-6-1.25-8.19-1.56a58.93,58.93,0,0,0-3.12-10.58,67.34,67.34,0,0,0-4.56-9.33,69.81,69.81,0,0,0-11-14.25,72.76,72.76,0,0,0-16.66-12.25,60.63,60.63,0,0,0-19.16-7,65.36,65.36,0,0,0-16.14-.55,67.21,67.21,0,0,0-16,2.53,64.9,64.9,0,0,0-13.32,5.64,70.58,70.58,0,0,0-12.48,9,60,60,0,0,0-11.41,12.21c-.4.59-1.84,2.76-3.43,5.73a23.89,23.89,0,0,0-2,4.58c-.26.75-.61,1.74-1.15,3.17-11.74.48-22.17.95-30.73,1.84-5.3.55-14.18,1.47-25.68,3.36-13.18,2.17-23.19,4.53-29.17,5.94-11.25,2.64-22.79,5.8-34.3,9.38-10.58,3.29-18.23,5.66-28.34,9.7-1.22.48-2.46,1-3.76,1.52-4.39,1.78-9.37,3.81-16.53,6.35l-4.49,1.61C302.21,384.24,299.82,385.1,297.92,385.76ZM494.85,587.68c-100.27,0-174.1-79.44-192.67-154.19a.64.64,0,0,1,0-.07c1-.41,2.14-.86,3.34-1.36,4.24-1.73,9.51-3.89,14.57-5.71,4.69-1.68,12.54-4.5,22.6-7.56,2.61-.8,3.5-1,12-3.35l11-3c.12.61.27,1.3.44,2,.58,2.62,1.35,5.55,2.23,8.48,1.67,5.57,3.35,9.95,4.21,12.07,1.93,4.77,3.67,8.27,4.71,10.36,1.73,3.45,3.86,7.34,6,11,1.64,2.77,2.9,4.71,5.17,8.22,2,3.14,3.15,4.87,4.8,7.17,1.31,1.81,2.5,3.34,4.91,6.41,2.62,3.35,3.93,5,5.37,6.73,3,3.52,5.5,6,6.85,7.39,3.47,3.51,6.21,5.91,8.64,8.05s5.62,4.93,9.78,8.12a159.41,159.41,0,0,0,13.94,9.47,199.61,199.61,0,0,0,18.91,10.34c4.52,2.14,9.09,4.1,13.56,5.8a176.17,176.17,0,0,0,18.71,6,153.64,153.64,0,0,0,18.65,3.6c4.7.58,8.53.8,11.06,1,3.74.21,7.86.33,12,.33h1.3a180.56,180.56,0,0,0,21.41-1.12,112.34,112.34,0,0,0,18-3.22c3.45-.94,6.33-1.94,12.07-3.92l.13,0c4.1-1.42,7.65-2.65,12.24-4.52,4.43-1.81,8.89-3.83,12.91-5.84,4.66-2.33,9.32-4.93,13.84-7.73a156.5,156.5,0,0,0,14.19-9.73c1.23-.95,3.77-3,8.83-7.22,3.08-2.53,5.24-4.33,7.78-6.53,1.73-1.51,3-2.64,4.3-3.8l4.06-3.68A197.5,197.5,0,0,1,494.85,587.68Zm-170.69-166,.55-.21.79-.26Zm344.12,63c-2.12,1.95-4.23,3.89-6.32,5.75-1.3,1.16-2.56,2.29-4.29,3.79-2.53,2.2-4.68,4-7.75,6.52-5.06,4.17-7.6,6.26-8.81,7.2A156.45,156.45,0,0,1,627,517.66c-4.49,2.78-9.12,5.37-13.75,7.69-4,2-8.44,4-12.85,5.8-4.57,1.87-8.1,3.09-12.19,4.51l.17.47-.3-.43c-5.71,2-8.58,3-12,3.91a112.18,112.18,0,0,1-17.9,3.19,180.29,180.29,0,0,1-21.3,1.11c-4.55,0-9.12-.08-13.23-.32-2.52-.15-6.33-.36-11-.94a152.73,152.73,0,0,1-18.53-3.58,173.88,173.88,0,0,1-18.59-6c-4.45-1.7-9-3.64-13.49-5.78a197.43,197.43,0,0,1-18.81-10.28,157.24,157.24,0,0,1-13.86-9.41c-4.14-3.17-7.24-5.89-9.75-8.1s-5.12-4.5-8.57-8c-1.34-1.35-3.82-3.85-6.79-7.34-1.43-1.68-2.75-3.36-5.37-6.72-2.38-3-3.57-4.56-4.87-6.35-1.64-2.29-2.75-4-4.77-7.13-2.27-3.51-3.52-5.44-5.15-8.19-2.13-3.59-4.25-7.45-6-10.89-1-2.07-2.77-5.55-4.68-10.28-.85-2.11-2.53-6.46-4.18-12-.87-2.91-1.64-5.82-2.22-8.42-.17-.76-.32-1.46-.45-2.09l6-1.64c11.13-3,12.3-3.36,15.45-4.08,8.26-1.89,14.65-3,21.47-4.13s13.66-2.17,20.06-3c7-.89,14.18-1.64,21.29-2.23,6.94-.57,17.35-1.42,26.7-1.72.66,1.56,1.64,3.51,3.11,6.23A69.21,69.21,0,0,0,488.58,413a70.17,70.17,0,0,0,13.91,12.62,72.25,72.25,0,0,0,13.9,7.39A63.27,63.27,0,0,0,534,437.69a60.26,60.26,0,0,0,6.47.34,65.86,65.86,0,0,0,17.93-2.5A72.7,72.7,0,0,0,570.77,431a67,67,0,0,0,10.81-6.6,51.09,51.09,0,0,0,7-5.8,63.33,63.33,0,0,0,5.19-6.24l1.65-2.12c1.24-1.58,2.47-3,3.46-4.08l.65-.74c1.1.22,2.28.39,3.54.55a61.22,61.22,0,0,1,6.72,1.15c3.9.92,9.8,2.32,16.59,4.16s11.54,3.34,20,6c9.61,3,14.43,4.57,20.51,6.79,7.44,2.71,14.45,5.53,20.85,8.38A194.66,194.66,0,0,1,668.28,484.73Zm20.06-55.31c-6.31-2.78-13.18-5.54-20.46-8.19-6.13-2.24-11-3.77-20.62-6.83-8.48-2.68-13.14-4.16-20.09-6s-12.77-3.26-16.71-4.19a66.37,66.37,0,0,0-7-1.21c-1.41-.18-2.62-.34-3.71-.58l-1.47-.32,0,.22c-.39.49-1,1.13-1.6,1.86-1,1.15-2.28,2.57-3.57,4.22l-1.66,2.13a60.43,60.43,0,0,1-4.95,6,48.51,48.51,0,0,1-6.64,5.49,66,66,0,0,1-10.35,6.33,71.11,71.11,0,0,1-11.81,4.35,63.54,63.54,0,0,1-10,2,57.89,57.89,0,0,1-30.13-4.38,69.58,69.58,0,0,1-13.32-7.08,67.45,67.45,0,0,1-13.32-12.08,66.72,66.72,0,0,1-7.5-10.89,65.34,65.34,0,0,1-3.17-6.41l-.52.21c0-.06,0-.11,0-.17a1.48,1.48,0,0,0-1.54-1.45c-9.59.28-20.35,1.17-27.48,1.75s-14.35,1.34-21.42,2.24c-6.43.83-13.41,1.87-20.23,3s-13.25,2.25-21.59,4.16c-3.21.73-4.38,1-15.57,4.11l-18,4.89c-7.87,2.14-9.25,2.52-11.49,3.2l-2.56-.78A40.37,40.37,0,0,1,326,407.24c-3.28-3.56-5.18-5.34-7.54-9.58a27.42,27.42,0,0,1-3.77-14.7l-.78.27c5.32-2,9.36-3.6,13-5.08l3.74-1.51c10-4,17.6-6.35,28.12-9.62,11.44-3.55,22.91-6.69,34.09-9.32,6.33-1.49,15.89-3.75,29-5.9,11.41-1.87,20.23-2.79,25.5-3.34,8.6-.89,19.16-1.36,31.06-1.84a1.52,1.52,0,0,0,.95-.4l.57.21.52-1.4c.63-1.65,1-2.74,1.3-3.56a21.56,21.56,0,0,1,1.84-4.16c1.53-2.85,2.89-4.91,3.27-5.47a56.87,56.87,0,0,1,10.89-11.62,68.21,68.21,0,0,1,12-8.69,62.19,62.19,0,0,1,12.71-5.38,64.71,64.71,0,0,1,15.37-2.42,62.16,62.16,0,0,1,15.45.51A57.25,57.25,0,0,1,571.45,311a69.26,69.26,0,0,1,16,11.74A67.11,67.11,0,0,1,598,336.35a65.09,65.09,0,0,1,4.35,8.9A56.28,56.28,0,0,1,605.42,356l.27,1.48.79-.15a1.37,1.37,0,0,0,.72.3c2.23.28,5,.85,8.59,1.61,4.39.93,7.61,1.9,11.7,3.13l.24.08c4.86,1.46,8.44,2.74,12.22,4.09,1.84.66,5.68,2,10.31,3.86,3.34,1.33,4.94,2.05,7.37,3.13,1.72.78,3.85,1.73,7.29,3.21,4,1.72,6.54,2.77,8.79,3.69,2.73,1.12,5.09,2.09,9.32,3.95,3.12,1.38,6.06,2.77,8.21,3.79l.83.39c0,.87,0,1.75,0,2.63A195.93,195.93,0,0,1,688.34,429.42Z" transform="translate(-294.5 -191.68)"/><path class="cls-5" d="M542.7,320.15a47.5,47.5,0,1,0,47.5,47.49A47.54,47.54,0,0,0,542.7,320.15Zm0,92a44.5,44.5,0,1,1,44.5-44.5A44.54,44.54,0,0,1,542.7,412.14Z" transform="translate(-294.5 -191.68)"/><path class="cls-5" d="M542.71,334.63A33.36,33.36,0,1,0,576.06,368,33.4,33.4,0,0,0,542.71,334.63Zm0,64.71A31.36,31.36,0,1,1,574.06,368,31.4,31.4,0,0,1,542.71,399.34Z" transform="translate(-294.5 -191.68)"/><ellipse class="cls-1" cx="391.75" cy="273.76" rx="55.77" ry="39.16" transform="translate(-380.47 96.11) rotate(-36.63)"/><path class="cls-6" d="M658.33,495c-2.54,2.2-4.7,4-7.78,6.53-5.06,4.17-7.6,6.27-8.83,7.22a156.5,156.5,0,0,1-14.19,9.73c-4.52,2.8-9.18,5.4-13.84,7.73-4,2-8.48,4-12.91,5.84-4.59,1.87-8.14,3.1-12.24,4.52l-.13,0c-5.74,2-8.62,3-12.07,3.92a112.34,112.34,0,0,1-18,3.22,180.56,180.56,0,0,1-21.41,1.12h-1.3c-4.14,0-8.26-.12-12-.33-2.53-.15-6.36-.37-11.06-1a153.64,153.64,0,0,1-18.65-3.6,176.17,176.17,0,0,1-18.71-6c-4.47-1.7-9-3.66-13.56-5.8a199.61,199.61,0,0,1-18.91-10.34,159.41,159.41,0,0,1-13.94-9.47c-4.16-3.19-7.28-5.92-9.78-8.12s-5.17-4.54-8.64-8.05c-1.35-1.35-3.85-3.87-6.85-7.39-1.44-1.7-2.75-3.38-5.37-6.73-2.41-3.07-3.6-4.6-4.91-6.41-1.65-2.3-2.77-4-4.8-7.17-2.27-3.51-3.53-5.45-5.17-8.22-2.14-3.61-4.27-7.5-6-11-1-2.09-2.78-5.59-4.71-10.36-.86-2.12-2.54-6.5-4.21-12.07-.88-2.93-1.65-5.86-2.23-8.48-.17-.74-.32-1.43-.44-2l-11,3c-8.51,2.31-9.4,2.55-12,3.35-10.06,3.06-17.91,5.88-22.6,7.56-5.06,1.82-10.33,4-14.57,5.71-1.2.5-2.32.95-3.34,1.36a.64.64,0,0,0,0,.07c18.57,74.75,92.4,154.19,192.67,154.19A197.5,197.5,0,0,0,666.69,487.55l-4.06,3.68C661.32,492.39,660.06,493.52,658.33,495Z" transform="translate(-294.5 -191.68)"/><path class="cls-6" d="M660.94,491.3c-2.52,2.23-4.65,4.05-7.7,6.62-5,4.23-7.54,6.35-8.76,7.32a157.69,157.69,0,0,1-14.08,9.89c-4.49,2.84-9.11,5.49-13.75,7.88-4,2-8.44,4.12-12.85,6-4.57,1.92-8.1,3.19-12.18,4.65l-.13.05c-5.72,2-8.59,3.08-12,4.06a113.43,113.43,0,0,1-18,3.42,182.34,182.34,0,0,1-21.39,1.36h-1.3c-4.14.05-8.26,0-12-.19-2.54-.12-6.36-.3-11.07-.82a156.73,156.73,0,0,1-18.69-3.4,174.15,174.15,0,0,1-18.77-5.78c-4.5-1.65-9.08-3.56-13.63-5.66a197.17,197.17,0,0,1-19-10.12,156.1,156.1,0,0,1-14-9.32c-4.2-3.14-7.35-5.84-9.87-8s-5.22-4.49-8.74-7.95c-1.35-1.34-3.88-3.83-6.92-7.32-1.46-1.68-2.8-3.35-5.45-6.67-2.44-3-3.65-4.55-5-6.35-1.68-2.29-2.81-4-4.88-7.12-2.31-3.49-3.58-5.41-5.26-8.16-2.18-3.58-4.35-7.45-6.12-10.89-1.06-2.07-2.85-5.56-4.82-10.3-.88-2.11-2.62-6.48-4.34-12-.91-2.92-1.72-5.85-2.33-8.46-.18-.74-.33-1.42-.46-2l-10.94,3.11c-8.48,2.41-9.37,2.66-12,3.49-10,3.17-17.85,6.07-22.52,7.81-5,1.87-10.29,4.09-14.5,5.87l-3.32,1.4s0,0,0,.07c19.39,74.53,94.1,153.15,194.37,152a197.47,197.47,0,0,0,170.72-102c-1.34,1.26-2.69,2.5-4,3.72S662.65,489.78,660.94,491.3Z" transform="translate(-294.5 -191.68)"/></svg>