<?xml version="1.0" encoding="UTF-8" standalone="no"?>
<!-- Created with Inkscape (http://www.inkscape.org/) -->

<svg
   width="305.14713"
   height="307.89227"
   viewBox="0 0 305.14713 307.89227"
   version="1.1"
   id="svg5"
   xml:space="preserve"
   inkscape:version="1.2 (dc2aedaf03, 2022-05-15)"
   sodipodi:docname="LogoCuartaCreciente.svg"
   inkscape:export-filename="LogoCuartaCrecienteNegra.svg"
   inkscape:export-xdpi="96"
   inkscape:export-ydpi="96"
   xmlns:inkscape="http://www.inkscape.org/namespaces/inkscape"
   xmlns:sodipodi="http://sodipodi.sourceforge.net/DTD/sodipodi-0.dtd"
   xmlns="http://www.w3.org/2000/svg"
   xmlns:svg="http://www.w3.org/2000/svg"><sodipodi:namedview
     id="namedview7"
     pagecolor="#505050"
     bordercolor="#eeeeee"
     borderopacity="1"
     inkscape:showpageshadow="0"
     inkscape:pageopacity="0"
     inkscape:pagecheckerboard="0"
     inkscape:deskcolor="#505050"
     inkscape:document-units="px"
     showgrid="false"
     inkscape:zoom="0.90509668"
     inkscape:cx="630.87183"
     inkscape:cy="329.79902"
     inkscape:window-width="1920"
     inkscape:window-height="1080"
     inkscape:window-x="-8"
     inkscape:window-y="-8"
     inkscape:window-maximized="0"
     inkscape:current-layer="layer4"
     showguides="true"><inkscape:grid
       type="xygrid"
       id="grid291" /><sodipodi:guide
       position="-367.44296,381.72434"
       orientation="0,-1"
       id="guide293"
       inkscape:locked="false" /><sodipodi:guide
       position="649.02304,609.32434"
       orientation="1,0"
       id="guide295"
       inkscape:locked="false" /></sodipodi:namedview><defs
     id="defs2"><linearGradient
       id="linearGradient3389"
       inkscape:swatch="solid"><stop
         style="stop-color:#ff6600;stop-opacity:1;"
         offset="0"
         id="stop3387" /></linearGradient></defs><g
     inkscape:groupmode="layer"
     id="layer6"
     inkscape:label="Luna"
     transform="translate(-21.623549,-434.01459)"><g
       inkscape:groupmode="layer"
       id="layer10"
       inkscape:label="MediaLuna 3"><g
         id="g8672"
         inkscape:export-filename=".\LunaNegraChica.svg"
         inkscape:export-xdpi="96"
         inkscape:export-ydpi="96"><text
           xml:space="preserve"
           style="font-size:68.5851px;line-height:1.25;font-family:'Matura MT Script Capitals';-inkscape-font-specification:'Matura MT Script Capitals, Normal';font-variant-ligatures:none;fill:#1a1a1a;fill-opacity:1;stroke-width:2.85776"
           x="27.690477"
           y="597.95239"
           id="text7432"><tspan
             sodipodi:role="line"
             id="tspan7430"
             x="27.690477"
             y="597.95239"
             style="fill:#1a1a1a;fill-opacity:1;stroke-width:2.85776">C</tspan></text><text
           xml:space="preserve"
           style="font-size:70.7914px;line-height:1.25;font-family:'Matura MT Script Capitals';-inkscape-font-specification:'Matura MT Script Capitals, Normal';font-variant-ligatures:none;fill:#1a1a1a;fill-opacity:1;stroke-width:2.94985"
           x="169.74242"
           y="598.82739"
           id="text7436"><tspan
             sodipodi:role="line"
             id="tspan7434"
             x="169.74242"
             y="598.82739"
             style="fill:#1a1a1a;fill-opacity:1;stroke-width:2.94985">T</tspan></text><text
           xml:space="preserve"
           style="font-size:50.1392px;line-height:1.25;font-family:'Matura MT Script Capitals';-inkscape-font-specification:'Matura MT Script Capitals, Normal';font-variant-ligatures:none;fill:#1a1a1a;fill-opacity:1;stroke-width:2.08915"
           x="84.355377"
           y="618.45325"
           id="text7440"
           transform="scale(1.0647723,0.93916794)"><tspan
             sodipodi:role="line"
             id="tspan7438"
             x="84.355377"
             y="618.45325"
             style="fill:#1a1a1a;fill-opacity:1;stroke-width:2.08915">uar</tspan></text><text
           xml:space="preserve"
           style="font-size:36.1908px;line-height:1.25;font-family:'Matura MT Script Capitals';-inkscape-font-specification:'Matura MT Script Capitals, Normal';font-variant-ligatures:none;fill:#1a1a1a;fill-opacity:1;stroke-width:1.5079"
           x="89.973984"
           y="607.04614"
           id="text7444"><tspan
             sodipodi:role="line"
             id="tspan7442"
             x="89.973984"
             y="607.04614"
             style="fill:#1a1a1a;fill-opacity:1;stroke-width:1.5079">recien</tspan></text><text
           xml:space="preserve"
           style="font-size:49.4704px;line-height:1.25;font-family:'Matura MT Script Capitals';-inkscape-font-specification:'Matura MT Script Capitals, Normal';font-variant-ligatures:none;fill:#1a1a1a;fill-opacity:1;stroke-width:2.06119"
           x="204.61792"
           y="634.56683"
           id="text7448"
           transform="scale(1.0811287,0.92495926)"><tspan
             sodipodi:role="line"
             id="tspan7446"
             x="204.61792"
             y="634.56683"
             style="fill:#1a1a1a;fill-opacity:1;stroke-width:2.06119">a</tspan></text><text
           xml:space="preserve"
           style="font-size:37.3494px;line-height:1.25;font-family:'Matura MT Script Capitals';-inkscape-font-specification:'Matura MT Script Capitals, Normal';font-variant-ligatures:none;fill:#1a1a1a;fill-opacity:1;stroke-width:1.55614"
           x="202.06035"
           y="608.29614"
           id="text7452"><tspan
             sodipodi:role="line"
             id="tspan7450"
             x="202.06035"
             y="608.29614"
             style="fill:#1a1a1a;fill-opacity:1;stroke-width:1.55614">e</tspan></text><text
           xml:space="preserve"
           style="font-size:13.8004px;line-height:1.25;font-family:'Matura MT Script Capitals';-inkscape-font-specification:'Matura MT Script Capitals, Normal';font-variant-ligatures:none;fill:#1a1a1a;fill-opacity:1;stroke-width:0.574995"
           x="100.49529"
           y="623.88989"
           id="text7460"><tspan
             sodipodi:role="line"
             id="tspan7458"
             x="100.49529"
             y="623.88989"
             style="fill:#1a1a1a;fill-opacity:1;stroke-width:0.574995">&quot;Pastelería&quot;</tspan></text><path
           style="display:inline;fill:#1a1a1a;stroke:#000000;stroke-width:1px;stroke-linecap:butt;stroke-linejoin:miter;stroke-opacity:1"
           d="m 311.46425,646.47826 c 0,0 12.30474,-30.07809 11.52348,-55.27343 -0.78123,-25.19528 -1.46488,-33.20312 -8.88673,-54.78514 -7.42188,-21.58202 -19.82422,-38.18357 -25.29298,-45.21482 -5.46876,-7.03124 -19.82421,-21.77736 -31.64065,-28.90628 -11.81644,-7.12891 -24.12111,-18.55467 -64.16022,-25.68357 -40.03911,-7.12892 -71.28907,6.15233 -73.14456,6.44528 -1.8555,0.29301 -21.77739,7.51953 -35.54693,17.67581 -13.76947,10.15621 -25.68359,18.26171 -41.1133,40.5273 -15.4297,22.26566 -21.09374,44.92194 -21.09374,44.92194 0,0 6.1938,-18.04751 17.86378,-33.37736 11.67007,-15.32983 27.34516,-29.69293 48.8208,-39.77471 21.47565,-10.0818 63.49127,-20.8909 108.12025,0.10515 44.62894,20.99614 60.85353,60.45466 60.85353,60.45466 0,0 30.12693,45.5556 1.81504,108.80847 -28.3119,63.25292 -96.69445,72.66386 -96.69445,72.66386 0,0 -21.40657,3.59078 -39.36046,0.13808 -17.95393,-3.45269 -31.28122,-6.76724 -54.41414,-21.75178 -23.13291,-14.98462 -39.98195,-43.36556 -44.67756,-56.00231 -4.69568,-12.63681 5.58337,17.03667 12.22399,27.38823 6.64064,10.35156 11.18508,16.52971 11.18508,16.52971 0,0 13.60359,16.98711 23.202,24.16866 9.59842,7.18155 22.71855,19.74928 55.7952,29.90015 33.07656,10.15086 65.53168,4.28129 65.53168,4.28129 0,0 23.68537,-2.69309 45.64432,-14.15593 21.95902,-11.46286 33.56001,-22.7186 33.56001,-22.7186 0,0 16.71091,-14.29402 28.58813,-34.0433 11.87716,-19.74929 10.71977,-21.02638 11.29843,-22.32136 z"
           id="path307"
           sodipodi:nodetypes="csssssssscssscscsssscsscscsc" /><g
           id="g4122"
           transform="matrix(0.93434808,0,0,1.0013185,-548.88195,215.26561)"
           style="stroke:#888888;stroke-opacity:1"><path
             style="fill:none;stroke:#888888;stroke-width:5.37;stroke-linecap:round;stroke-linejoin:round;stroke-dasharray:none;stroke-opacity:1"
             d="m 929.79891,392.75632 -6.19812,16.57942 c 0,0 -3.69726,7.14858 -8.53058,9.79892 -4.83328,2.65034 -7.16472,2.01238 -9.85408,1.63353 -2.6889,-0.37843 -14.11463,-7.74471 -17.56691,-10.44739 -3.45199,-2.70229 -9.01766,-7.86316 -10.70042,-10.94218 -1.68306,-3.0787 -2.40283,-6.20866 -2.35998,-9.22635 0.0445,-3.01709 1.68641,-5.00434 1.68641,-5.00434 l 5.85744,3.50406 c 0,0 4.83304,2.64507 13.04433,4.29076 1.89178,0.37914 15.80692,3.2814 21.07686,3.67673 6.00437,0.45043 10.44718,-0.43779 13.54505,-3.86316 z"
             id="path4112"
             sodipodi:nodetypes="ccscsccccssc" /><path
             style="fill:none;stroke:#888888;stroke-width:5.37;stroke-linecap:round;stroke-linejoin:round;stroke-dasharray:none;stroke-opacity:1"
             d="m 906.07889,420.92193 c 0,0 -5.4298,7.71083 -21.87764,11.5592 -15.61197,3.65318 -22.012,-5.55282 -16.51945,-19.57376 4.01698,-10.25395 8.29566,-15.66577 8.29566,-15.66577 l 1.9119,3.68929 4.08364,4.35245 c 0,0 5.40651,5.6763 17.62383,12.88877 5.24447,3.09606 6.48206,2.74982 6.48206,2.74982 z"
             id="path4114"
             sodipodi:nodetypes="csscccsc" /><path
             style="fill:none;stroke:#888888;stroke-width:5.26989;stroke-linecap:round;stroke-linejoin:round;stroke-dasharray:none;stroke-opacity:1"
             d="m 934.14102,381.86963 c 0,0 0.89479,-13.66393 0.0225,-29.96866 -0.87225,-16.30524 -15.46498,-14.50225 -18.15681,-14.23835 -2.69188,0.26295 -25.92921,3.51763 -34.27531,9.07732 -8.34675,5.5606 -7.3878,9.78227 -7.3878,9.78227 l -0.0364,21.63205 c 0,0 -0.0286,3.78302 4.59487,7.22713 4.62396,3.44438 10.33868,5.5645 10.33868,5.5645 0,0 19.43503,5.87868 31.24543,5.93175 11.81062,0.0526 13.83423,-13.06219 13.65453,-15.00803 z"
             id="path4116" /><path
             style="fill:none;stroke:#888888;stroke-width:5.37;stroke-linecap:round;stroke-linejoin:round;stroke-dasharray:none;stroke-opacity:1"
             d="m 930.20658,341.5899 -4.29217,-12.78557 c 0,0 -4.20889,-9.69016 -9.0013,-12.41422 -4.79213,-2.72391 -8.72147,-3.98637 -11.41592,-3.64874 -2.69461,0.33769 -14.23144,7.5282 -17.72467,10.17769 -3.493,2.64897 -9.13694,7.72439 -10.86691,10.77677 -1.72982,3.05255 -2.15185,4.85935 -2.15515,7.87715 -0.004,3.01744 1.48551,7.63076 1.48551,7.63076 l 4.2264,-3.02262 c 0,0 7.39307,-3.22613 11.10175,-3.99565 9.47001,-2.0391 31.09166,-9.00999 38.64246,-0.59557 z"
             id="path4118"
             sodipodi:nodetypes="ccssccccccc" /><path
             style="fill:none;stroke:#888888;stroke-width:5.37;stroke-linecap:round;stroke-linejoin:round;stroke-dasharray:none;stroke-opacity:1"
             d="m 905.52061,312.76171 c 0,0 -4.91823,-7.78756 -21.35971,-11.66533 -15.60523,-3.68036 -21.95269,5.37604 -16.48473,19.40671 3.9989,10.26103 8.07855,15.47368 8.07855,15.47368 l 1.65111,-3.01511 c 0,0 3.87916,-6.27155 14.39439,-12.75771 3.35712,-2.07079 6.66513,-4.36156 11.73925,-6.79405 1.53912,-0.73784 1.98114,-0.64819 1.98114,-0.64819 z"
             id="path4120"
             sodipodi:nodetypes="cssccssc" /></g></g><text
         xml:space="preserve"
         style="font-size:24px;line-height:1.25;font-family:'French Script MT';-inkscape-font-specification:'French Script MT, Normal';font-variant-ligatures:none"
         x="50.823284"
         y="644.13007"
         id="text740"><tspan
           sodipodi:role="line"
           id="tspan738"
           x="50.823284"
           y="644.13007">Media lunas y delicateses</tspan></text></g></g></svg>
